G04*
G04 #@! TF.GenerationSoftware,Altium Limited,Altium Designer,20.1.8 (145)*
G04*
G04 Layer_Color=8388736*
%FSLAX25Y25*%
%MOIN*%
G70*
G04*
G04 #@! TF.SameCoordinates,AD2E53F2-275F-43D4-B2A7-20F968E01B46*
G04*
G04*
G04 #@! TF.FilePolarity,Negative*
G04*
G01*
G75*
%ADD19R,0.03950X0.04343*%
%ADD20R,0.07099X0.04304*%
%ADD21R,0.04343X0.03950*%
%ADD22R,0.05131X0.04737*%
%ADD23R,0.04737X0.07493*%
%ADD24C,0.04737*%
%ADD25R,0.01700X0.06600*%
%ADD26R,0.06600X0.01700*%
%ADD27R,0.06312X0.05524*%
%ADD28R,0.02375X0.06115*%
%ADD29R,0.07099X0.06312*%
%ADD30R,0.08280X0.08280*%
%ADD31R,0.06706X0.03162*%
%ADD32O,0.09068X0.01981*%
%ADD33O,0.01981X0.09068*%
%ADD34C,0.01378*%
%ADD35R,0.02800X0.06600*%
%ADD36R,0.06600X0.02800*%
%ADD37R,0.33084X0.41942*%
%ADD38R,0.14580X0.04540*%
%ADD39R,0.04737X0.05131*%
%ADD40R,0.03162X0.03950*%
%ADD41R,0.03950X0.03162*%
%ADD42R,0.02572X0.02769*%
%ADD43R,0.04501X0.04816*%
%ADD44R,0.04816X0.04501*%
%ADD45R,0.03300X0.02700*%
%ADD46R,0.02700X0.03300*%
G04:AMPARAMS|DCode=47|XSize=78.87mil|YSize=78.87mil|CornerRadius=12.86mil|HoleSize=0mil|Usage=FLASHONLY|Rotation=0.000|XOffset=0mil|YOffset=0mil|HoleType=Round|Shape=RoundedRectangle|*
%AMROUNDEDRECTD47*
21,1,0.07887,0.05315,0,0,0.0*
21,1,0.05315,0.07887,0,0,0.0*
1,1,0.02572,0.02657,-0.02657*
1,1,0.02572,-0.02657,-0.02657*
1,1,0.02572,-0.02657,0.02657*
1,1,0.02572,0.02657,0.02657*
%
%ADD47ROUNDEDRECTD47*%
%ADD48C,0.07887*%
%ADD49C,0.10642*%
%ADD50C,0.11824*%
%ADD51C,0.02375*%
%ADD52O,0.32296X0.09068*%
%ADD53O,0.04343X0.07099*%
%ADD54C,0.06706*%
%ADD55R,0.06706X0.06706*%
%ADD56C,0.07099*%
%ADD57R,0.07099X0.07099*%
G04:AMPARAMS|DCode=58|XSize=78.87mil|YSize=78.87mil|CornerRadius=12.86mil|HoleSize=0mil|Usage=FLASHONLY|Rotation=270.000|XOffset=0mil|YOffset=0mil|HoleType=Round|Shape=RoundedRectangle|*
%AMROUNDEDRECTD58*
21,1,0.07887,0.05315,0,0,270.0*
21,1,0.05315,0.07887,0,0,270.0*
1,1,0.02572,-0.02657,-0.02657*
1,1,0.02572,-0.02657,0.02657*
1,1,0.02572,0.02657,0.02657*
1,1,0.02572,0.02657,-0.02657*
%
%ADD58ROUNDEDRECTD58*%
%ADD59C,0.03200*%
%ADD60C,0.02800*%
%ADD61C,0.05800*%
%ADD62C,0.02572*%
D19*
X88838Y40000D02*
D03*
X93562D02*
D03*
X122738Y60300D02*
D03*
X127462D02*
D03*
X137738Y52300D02*
D03*
X142462D02*
D03*
X60162Y40100D02*
D03*
X55438D02*
D03*
X60162Y44900D02*
D03*
X55438D02*
D03*
X41862Y116700D02*
D03*
X37138D02*
D03*
X41862Y121200D02*
D03*
X37138D02*
D03*
X138338Y141500D02*
D03*
X143062D02*
D03*
X138488Y122150D02*
D03*
X143212D02*
D03*
X41862Y108600D02*
D03*
X37138D02*
D03*
X122638Y311000D02*
D03*
X127362D02*
D03*
X88238Y333000D02*
D03*
X92962D02*
D03*
X88238Y347600D02*
D03*
X92962D02*
D03*
X24562Y325400D02*
D03*
X19838D02*
D03*
X24862Y305205D02*
D03*
X20138D02*
D03*
X88238Y338000D02*
D03*
X92962D02*
D03*
X88238Y352800D02*
D03*
X92962D02*
D03*
X115362Y339000D02*
D03*
X110638D02*
D03*
X115362Y344000D02*
D03*
X110638D02*
D03*
D20*
X96418Y47900D02*
D03*
Y52900D02*
D03*
Y57900D02*
D03*
X86182Y47900D02*
D03*
Y52900D02*
D03*
Y57900D02*
D03*
X121482Y52400D02*
D03*
Y47400D02*
D03*
Y42400D02*
D03*
X131718Y52400D02*
D03*
Y47400D02*
D03*
Y42400D02*
D03*
D21*
X21100Y40938D02*
D03*
Y45662D02*
D03*
X4800Y45762D02*
D03*
Y41038D02*
D03*
X156000Y99362D02*
D03*
Y94638D02*
D03*
X68400Y21762D02*
D03*
Y17038D02*
D03*
X73300Y21762D02*
D03*
Y17038D02*
D03*
X104300Y21800D02*
D03*
Y17076D02*
D03*
X99600Y21762D02*
D03*
Y17038D02*
D03*
X122700Y71038D02*
D03*
Y75762D02*
D03*
X94900Y21762D02*
D03*
Y17038D02*
D03*
X79300Y21762D02*
D03*
Y17038D02*
D03*
X55500Y69138D02*
D03*
Y73862D02*
D03*
X50400Y96362D02*
D03*
Y91638D02*
D03*
X112600Y96162D02*
D03*
Y91438D02*
D03*
X55500Y96362D02*
D03*
Y91638D02*
D03*
X49100Y193238D02*
D03*
Y197962D02*
D03*
X72550Y193388D02*
D03*
Y198113D02*
D03*
X97000Y193238D02*
D03*
Y197962D02*
D03*
X107000Y193038D02*
D03*
Y197762D02*
D03*
X54100Y193238D02*
D03*
Y197962D02*
D03*
X124500Y96162D02*
D03*
Y91438D02*
D03*
X62600Y288362D02*
D03*
Y283638D02*
D03*
X85100Y312762D02*
D03*
Y308038D02*
D03*
X57453Y288362D02*
D03*
Y283638D02*
D03*
X52000Y353138D02*
D03*
Y357862D02*
D03*
X61100Y351638D02*
D03*
Y356362D02*
D03*
X82300Y356362D02*
D03*
Y351638D02*
D03*
X47000Y353138D02*
D03*
Y357862D02*
D03*
D22*
X83846Y387500D02*
D03*
X77153D02*
D03*
X163307Y141000D02*
D03*
X170000D02*
D03*
X24846Y153000D02*
D03*
X18154D02*
D03*
X24846Y159000D02*
D03*
X18154D02*
D03*
X24846Y165000D02*
D03*
X18154D02*
D03*
X24846Y171000D02*
D03*
X18154D02*
D03*
X24846Y177000D02*
D03*
X18154D02*
D03*
X24846Y183000D02*
D03*
X18154D02*
D03*
X24846Y189000D02*
D03*
X18154D02*
D03*
X24846Y195000D02*
D03*
X18154D02*
D03*
X162654Y111000D02*
D03*
X169346D02*
D03*
X77153Y381000D02*
D03*
X83846D02*
D03*
X11846Y153000D02*
D03*
X5153D02*
D03*
X11846Y159000D02*
D03*
X5153D02*
D03*
X11846Y165000D02*
D03*
X5153D02*
D03*
X11846Y171000D02*
D03*
X5153D02*
D03*
X11846Y177000D02*
D03*
X5153D02*
D03*
X11846Y183000D02*
D03*
X5153D02*
D03*
X11846Y189000D02*
D03*
X5153D02*
D03*
X11846Y195000D02*
D03*
X5153D02*
D03*
X162654Y104000D02*
D03*
X169346D02*
D03*
X141154Y107800D02*
D03*
X147846D02*
D03*
Y86100D02*
D03*
X141154D02*
D03*
X77153Y374500D02*
D03*
X83846D02*
D03*
D23*
X4520Y31402D02*
D03*
X19480D02*
D03*
Y6598D02*
D03*
X4520D02*
D03*
X43000Y6500D02*
D03*
X28039D02*
D03*
Y31303D02*
D03*
X43000D02*
D03*
X156580Y263698D02*
D03*
X141620D02*
D03*
Y288502D02*
D03*
X156580D02*
D03*
D24*
X133000Y97000D02*
D03*
X129500Y191500D02*
D03*
X91850Y212650D02*
D03*
Y206650D02*
D03*
X68300Y27400D02*
D03*
X149000Y114000D02*
D03*
X169500Y339500D02*
D03*
X83500Y363500D02*
D03*
D25*
X55551Y186300D02*
D03*
X57520D02*
D03*
X59488D02*
D03*
X61457D02*
D03*
X63425D02*
D03*
X65394D02*
D03*
X67362D02*
D03*
X69331D02*
D03*
X71299D02*
D03*
X73268D02*
D03*
X75236D02*
D03*
X77205D02*
D03*
X79173D02*
D03*
X81142D02*
D03*
X83110D02*
D03*
X85079D02*
D03*
X87047D02*
D03*
X89016D02*
D03*
X90984D02*
D03*
X92953D02*
D03*
X94921D02*
D03*
X96890D02*
D03*
X98858D02*
D03*
X100827D02*
D03*
X102795D02*
D03*
X104764D02*
D03*
X106732D02*
D03*
X108701D02*
D03*
X110669D02*
D03*
X112638D02*
D03*
X114606D02*
D03*
X116575D02*
D03*
X118543D02*
D03*
X120512D02*
D03*
X122480D02*
D03*
X124449D02*
D03*
Y102700D02*
D03*
X122480D02*
D03*
X120512D02*
D03*
X118543D02*
D03*
X116575D02*
D03*
X114606D02*
D03*
X112638D02*
D03*
X110669D02*
D03*
X108701D02*
D03*
X106732D02*
D03*
X104764D02*
D03*
X102795D02*
D03*
X100827D02*
D03*
X98858D02*
D03*
X96890D02*
D03*
X94921D02*
D03*
X92953D02*
D03*
X90984D02*
D03*
X89016D02*
D03*
X87047D02*
D03*
X85079D02*
D03*
X83110D02*
D03*
X81142D02*
D03*
X79173D02*
D03*
X77205D02*
D03*
X75236D02*
D03*
X73268D02*
D03*
X71299D02*
D03*
X69331D02*
D03*
X67362D02*
D03*
X65394D02*
D03*
X63425D02*
D03*
X61457D02*
D03*
X59488D02*
D03*
X57520D02*
D03*
X55551D02*
D03*
D26*
X131800Y178949D02*
D03*
Y176980D02*
D03*
Y175012D02*
D03*
Y173043D02*
D03*
Y171075D02*
D03*
Y169106D02*
D03*
Y167138D02*
D03*
Y165169D02*
D03*
Y163201D02*
D03*
Y161232D02*
D03*
Y159264D02*
D03*
Y157295D02*
D03*
Y155327D02*
D03*
Y153358D02*
D03*
Y151390D02*
D03*
Y149421D02*
D03*
Y147453D02*
D03*
Y145484D02*
D03*
Y143516D02*
D03*
Y141547D02*
D03*
Y139579D02*
D03*
Y137610D02*
D03*
Y135642D02*
D03*
Y133673D02*
D03*
Y131705D02*
D03*
Y129736D02*
D03*
Y127768D02*
D03*
Y125799D02*
D03*
Y123831D02*
D03*
Y121862D02*
D03*
Y119894D02*
D03*
Y117925D02*
D03*
Y115957D02*
D03*
Y113988D02*
D03*
Y112020D02*
D03*
Y110051D02*
D03*
X48200D02*
D03*
Y112020D02*
D03*
Y113988D02*
D03*
Y115957D02*
D03*
Y117925D02*
D03*
Y119894D02*
D03*
Y121862D02*
D03*
Y123831D02*
D03*
Y125799D02*
D03*
Y127768D02*
D03*
Y129736D02*
D03*
Y131705D02*
D03*
Y133673D02*
D03*
Y135642D02*
D03*
Y137610D02*
D03*
Y139579D02*
D03*
Y141547D02*
D03*
Y143516D02*
D03*
Y145484D02*
D03*
Y147453D02*
D03*
Y149421D02*
D03*
Y151390D02*
D03*
Y153358D02*
D03*
Y155327D02*
D03*
Y157295D02*
D03*
Y159264D02*
D03*
Y161232D02*
D03*
Y163201D02*
D03*
Y165169D02*
D03*
Y167138D02*
D03*
Y169106D02*
D03*
Y171075D02*
D03*
Y173043D02*
D03*
Y175012D02*
D03*
Y176980D02*
D03*
Y178949D02*
D03*
D27*
X75988Y357347D02*
D03*
X67327D02*
D03*
Y350654D02*
D03*
X75988D02*
D03*
D28*
X54500Y374681D02*
D03*
X51941D02*
D03*
X57059D02*
D03*
X49382D02*
D03*
X59618D02*
D03*
D29*
X67098Y375961D02*
D03*
X41902D02*
D03*
D30*
X48791Y386000D02*
D03*
X60209D02*
D03*
D31*
X116130Y306000D02*
D03*
Y311000D02*
D03*
Y316000D02*
D03*
Y321000D02*
D03*
X94870Y306000D02*
D03*
Y311000D02*
D03*
Y316000D02*
D03*
Y321000D02*
D03*
X149028Y93260D02*
D03*
Y100740D02*
D03*
X139972Y97000D02*
D03*
D32*
X76547Y332764D02*
D03*
Y330795D02*
D03*
Y328827D02*
D03*
Y326858D02*
D03*
Y324890D02*
D03*
Y322921D02*
D03*
Y320953D02*
D03*
Y318984D02*
D03*
Y317016D02*
D03*
Y315047D02*
D03*
Y313079D02*
D03*
Y311110D02*
D03*
Y309142D02*
D03*
Y307173D02*
D03*
Y305205D02*
D03*
Y303236D02*
D03*
X32453D02*
D03*
Y305205D02*
D03*
Y307173D02*
D03*
Y309142D02*
D03*
Y311110D02*
D03*
Y313079D02*
D03*
Y315047D02*
D03*
Y317016D02*
D03*
Y318984D02*
D03*
Y320953D02*
D03*
Y322921D02*
D03*
Y324890D02*
D03*
Y326858D02*
D03*
Y328827D02*
D03*
Y330795D02*
D03*
Y332764D02*
D03*
D33*
X69264Y295953D02*
D03*
X67295D02*
D03*
X65327D02*
D03*
X63358D02*
D03*
X61390D02*
D03*
X59421D02*
D03*
X57453D02*
D03*
X55484D02*
D03*
X53516D02*
D03*
X51547D02*
D03*
X49579D02*
D03*
X47610D02*
D03*
X45642D02*
D03*
X43673D02*
D03*
X41705D02*
D03*
X39736D02*
D03*
Y340047D02*
D03*
X41705D02*
D03*
X43673D02*
D03*
X45642D02*
D03*
X47610D02*
D03*
X49579D02*
D03*
X51547D02*
D03*
X53516D02*
D03*
X55484D02*
D03*
X57453D02*
D03*
X59421D02*
D03*
X61390D02*
D03*
X63358D02*
D03*
X65327D02*
D03*
X67295D02*
D03*
X69264D02*
D03*
D34*
X172374Y160189D02*
D03*
X168437D02*
D03*
X164500D02*
D03*
X160563D02*
D03*
X156626D02*
D03*
X172374Y164126D02*
D03*
X168437D02*
D03*
X164500D02*
D03*
X160563D02*
D03*
X156626D02*
D03*
X172374Y168063D02*
D03*
X168437D02*
D03*
X164500D02*
D03*
X160563D02*
D03*
X156626D02*
D03*
X172374Y172000D02*
D03*
X168437D02*
D03*
X164500D02*
D03*
X160563D02*
D03*
X156626D02*
D03*
X172374Y175937D02*
D03*
X168437D02*
D03*
X164500D02*
D03*
X160563D02*
D03*
X156626D02*
D03*
D35*
X104750Y28300D02*
D03*
X101650D02*
D03*
X98450D02*
D03*
X95350D02*
D03*
X92150D02*
D03*
X89050D02*
D03*
X85950D02*
D03*
X82750D02*
D03*
X79650D02*
D03*
X76450D02*
D03*
X73350D02*
D03*
Y72500D02*
D03*
X76450D02*
D03*
X79650D02*
D03*
X82750D02*
D03*
X85950D02*
D03*
X89050D02*
D03*
X92150D02*
D03*
X95350D02*
D03*
X98450D02*
D03*
X101650D02*
D03*
X104750D02*
D03*
D36*
X66950Y34700D02*
D03*
Y37800D02*
D03*
Y41000D02*
D03*
Y44100D02*
D03*
Y47300D02*
D03*
Y50400D02*
D03*
Y53500D02*
D03*
Y56700D02*
D03*
Y59800D02*
D03*
Y63000D02*
D03*
Y66100D02*
D03*
X111150D02*
D03*
Y63000D02*
D03*
Y59800D02*
D03*
Y56700D02*
D03*
Y53500D02*
D03*
Y50400D02*
D03*
Y47300D02*
D03*
Y44100D02*
D03*
Y41000D02*
D03*
Y37800D02*
D03*
Y34700D02*
D03*
D37*
X155854Y368000D02*
D03*
D38*
X115894Y358000D02*
D03*
Y368000D02*
D03*
Y378000D02*
D03*
D39*
X16000Y40154D02*
D03*
Y46847D02*
D03*
X10000Y40154D02*
D03*
Y46847D02*
D03*
X102500Y298346D02*
D03*
Y291653D02*
D03*
X115500Y298346D02*
D03*
Y291653D02*
D03*
X109000Y298346D02*
D03*
Y291653D02*
D03*
X96000Y298346D02*
D03*
Y291653D02*
D03*
X36100Y352354D02*
D03*
Y359047D02*
D03*
X29600Y359047D02*
D03*
Y352354D02*
D03*
D40*
X88041Y342800D02*
D03*
X93159D02*
D03*
D41*
X19500Y348559D02*
D03*
Y343441D02*
D03*
X24500Y348559D02*
D03*
Y343441D02*
D03*
X14500Y348559D02*
D03*
Y343441D02*
D03*
D42*
X117400Y34724D02*
D03*
Y37676D02*
D03*
D43*
X83610Y368500D02*
D03*
X77390D02*
D03*
X93710Y357900D02*
D03*
X87490D02*
D03*
D44*
X42100Y358810D02*
D03*
Y352590D02*
D03*
D45*
X145900Y171000D02*
D03*
X149100D02*
D03*
X145900Y167000D02*
D03*
X149100D02*
D03*
X145900Y179000D02*
D03*
X149100D02*
D03*
X38400Y167000D02*
D03*
X41600D02*
D03*
X38000Y148700D02*
D03*
X41200D02*
D03*
X142100Y171000D02*
D03*
X138900D02*
D03*
X142100Y167000D02*
D03*
X138900D02*
D03*
X142100Y179000D02*
D03*
X138900D02*
D03*
D46*
X83800Y91500D02*
D03*
Y94700D02*
D03*
D47*
X161000Y120000D02*
D03*
X150000Y191500D02*
D03*
X171500D02*
D03*
X161000Y132000D02*
D03*
D48*
X171000Y120000D02*
D03*
X140000Y191500D02*
D03*
X161500D02*
D03*
X171000Y132000D02*
D03*
X97000Y375000D02*
D03*
D49*
X161500Y25500D02*
D03*
Y61500D02*
D03*
D50*
X151500Y15500D02*
D03*
X171500D02*
D03*
X151500Y35500D02*
D03*
X171500D02*
D03*
X151500Y51500D02*
D03*
X171500D02*
D03*
X151500Y71500D02*
D03*
X171500D02*
D03*
D51*
X109252Y244094D02*
D03*
X117126D02*
D03*
X125000D02*
D03*
X132874D02*
D03*
X140748D02*
D03*
Y236221D02*
D03*
X132874D02*
D03*
X125000D02*
D03*
X117126D02*
D03*
X109252D02*
D03*
X36417D02*
D03*
X44291D02*
D03*
X52165D02*
D03*
X60039D02*
D03*
X67913D02*
D03*
Y244094D02*
D03*
X60039D02*
D03*
X52165D02*
D03*
X44291D02*
D03*
X36417D02*
D03*
D52*
X88583Y240158D02*
D03*
D53*
X41508Y386000D02*
D03*
X67492D02*
D03*
D54*
X7500Y71000D02*
D03*
X17500D02*
D03*
Y61000D02*
D03*
X7500D02*
D03*
Y81000D02*
D03*
X17500D02*
D03*
Y111000D02*
D03*
X7500D02*
D03*
X17500Y101000D02*
D03*
X7500D02*
D03*
X17500Y91000D02*
D03*
X7500D02*
D03*
Y121000D02*
D03*
X17500D02*
D03*
X7500Y131000D02*
D03*
X17500D02*
D03*
X7500Y141000D02*
D03*
D55*
X17500D02*
D03*
D56*
X156000Y222500D02*
D03*
X146000D02*
D03*
X156000Y212500D02*
D03*
X146000D02*
D03*
X136000Y222500D02*
D03*
Y212500D02*
D03*
X126000Y222500D02*
D03*
Y212500D02*
D03*
X116000Y222500D02*
D03*
X63000Y266000D02*
D03*
X53000D02*
D03*
X63000Y256000D02*
D03*
X53000D02*
D03*
X43000Y266000D02*
D03*
Y256000D02*
D03*
X33000Y266000D02*
D03*
Y256000D02*
D03*
X23000Y266000D02*
D03*
X62500Y223000D02*
D03*
X52500D02*
D03*
X62500Y213000D02*
D03*
X52500D02*
D03*
X42500Y223000D02*
D03*
Y213000D02*
D03*
X32500Y223000D02*
D03*
Y213000D02*
D03*
X22500Y223000D02*
D03*
D57*
X116000Y212500D02*
D03*
X23000Y256000D02*
D03*
X22500Y213000D02*
D03*
D58*
X97000Y385000D02*
D03*
D59*
X97700Y39900D02*
D03*
X86182Y42656D02*
D03*
X126500Y121700D02*
D03*
X24400Y48700D02*
D03*
X41200Y112400D02*
D03*
X37300Y112600D02*
D03*
X55500Y88000D02*
D03*
X108613Y94413D02*
D03*
X147250Y121950D02*
D03*
X139800Y163000D02*
D03*
X139600Y159600D02*
D03*
X54500Y149600D02*
D03*
X54800Y145500D02*
D03*
X95300Y66500D02*
D03*
X85900Y66800D02*
D03*
X124600Y88500D02*
D03*
X118275Y96100D02*
D03*
X82400Y108400D02*
D03*
X86900D02*
D03*
X73200D02*
D03*
X55500Y108000D02*
D03*
X37545Y135595D02*
D03*
X29600Y142400D02*
D03*
X55500Y167200D02*
D03*
X34500Y166000D02*
D03*
X60500Y180300D02*
D03*
X102200Y209000D02*
D03*
X101800Y181200D02*
D03*
X110600Y180900D02*
D03*
X94200Y180600D02*
D03*
X72100Y178700D02*
D03*
X75800Y180700D02*
D03*
X49000Y200900D02*
D03*
X5000Y149500D02*
D03*
X55795Y157295D02*
D03*
X77796Y194904D02*
D03*
X80200Y192500D02*
D03*
X65300Y180500D02*
D03*
X66600Y193500D02*
D03*
X57687Y204413D02*
D03*
X60092Y202008D02*
D03*
X62496Y199604D02*
D03*
X64900Y197200D02*
D03*
X34224Y124588D02*
D03*
X41624Y130887D02*
D03*
X55102Y125787D02*
D03*
Y129724D02*
D03*
Y133661D02*
D03*
X55100Y137600D02*
D03*
D60*
X115900Y44100D02*
D03*
X131900Y60200D02*
D03*
X108400Y22600D02*
D03*
X83125Y21346D02*
D03*
X126500Y52300D02*
D03*
X122700Y78300D02*
D03*
Y68500D02*
D03*
X55500Y76800D02*
D03*
Y66100D02*
D03*
X105600Y50400D02*
D03*
Y44100D02*
D03*
X92100Y33500D02*
D03*
X98400Y33400D02*
D03*
X73300Y14300D02*
D03*
X79500Y33600D02*
D03*
X72100Y41100D02*
D03*
X60200Y34700D02*
D03*
X60500Y50500D02*
D03*
X119400Y174500D02*
D03*
X126100Y175500D02*
D03*
X87900Y86400D02*
D03*
X141500Y257200D02*
D03*
X121000Y178700D02*
D03*
D61*
X163200Y342300D02*
D03*
X155225D02*
D03*
X147250D02*
D03*
X139275D02*
D03*
X131300D02*
D03*
X154400Y111400D02*
D03*
X154900Y104100D02*
D03*
X156000Y89000D02*
D03*
X141000Y115000D02*
D03*
X171000Y92000D02*
D03*
D62*
X139800Y156100D02*
D03*
M02*
