G04*
G04 #@! TF.GenerationSoftware,Altium Limited,Altium Designer,20.1.8 (145)*
G04*
G04 Layer_Color=16711935*
%FSLAX25Y25*%
%MOIN*%
G70*
G04*
G04 #@! TF.SameCoordinates,AD2E53F2-275F-43D4-B2A7-20F968E01B46*
G04*
G04*
G04 #@! TF.FilePolarity,Positive*
G04*
G01*
G75*
%ADD64C,0.00500*%
D64*
X3937Y236221D02*
X2918Y236086D01*
X1969Y235693D01*
X1153Y235067D01*
X527Y234252D01*
X134Y233302D01*
X0Y232283D01*
X27559Y236221D02*
X28578Y236355D01*
X29528Y236748D01*
X30343Y237374D01*
X30969Y238189D01*
X31362Y239139D01*
X31496Y240158D01*
X31496D02*
X31362Y241177D01*
X30969Y242126D01*
X30343Y242941D01*
X29528Y243567D01*
X28578Y243960D01*
X27559Y244094D01*
X0Y248031D02*
X134Y247012D01*
X527Y246063D01*
X1153Y245248D01*
X1969Y244622D01*
X2918Y244229D01*
X3937Y244094D01*
X173228D02*
X174247Y244229D01*
X175197Y244622D01*
X176012Y245248D01*
X176638Y246063D01*
X177031Y247012D01*
X177165Y248031D01*
X149606Y244094D02*
X148587Y243960D01*
X147638Y243567D01*
X146822Y242941D01*
X146197Y242126D01*
X145803Y241177D01*
X145669Y240158D01*
X145803Y239139D01*
X146197Y238189D01*
X146822Y237374D01*
X147638Y236748D01*
X148587Y236355D01*
X149606Y236221D01*
X177165Y232283D02*
X177031Y233302D01*
X176638Y234252D01*
X176012Y235067D01*
X175197Y235693D01*
X174247Y236086D01*
X173228Y236221D01*
X177165Y0D02*
Y232283D01*
X0Y0D02*
X177165D01*
X0D02*
Y232283D01*
X3937Y236221D02*
X27559Y236221D01*
X3937Y244094D02*
X27559D01*
X0Y248031D02*
Y393701D01*
X177165Y393701D01*
Y248031D02*
Y393701D01*
X149606Y244094D02*
X173228D01*
X149606Y236221D02*
X173228D01*
M02*
