M48
;Layer_Color=9474304
;FILE_FORMAT=2:5
INCH,TZ
;TYPE=PLATED
T1F00S00C0.00787
T2F00S00C0.00800
T3F00S00C0.01200
T5F00S00C0.02500
T6F00S00C0.02800
T7F00S00C0.03543
T8F00S00C0.03937
T9F00S00C0.04331
T10F00S00C0.05906
T11F00S00C0.06299
;TYPE=NON_PLATED
T12F00S00C0.01575
%
T01
X139800Y156100
X173500Y156200
X153800Y162600
X150100Y159500
T02
X73300Y14300
X83125Y21346
X79500Y33600
X92100Y33500
X98400Y33400
X105600Y44100
Y50400
X115900Y44100
X126500Y52300
X131900Y60200
X122700Y68500
Y78300
X87900Y86400
X55500Y76800
Y66100
X60500Y50500
X60200Y34700
X72100Y41100
X108400Y22600
X169800Y152600
X166900Y157600
X158300Y180200
X155300Y179100
X126100Y175500
X119400Y174500
X121000Y178700
X141500Y257200
T03
X4520Y19000
X43000Y18902
X24400Y48700
X86182Y42656
X97700Y39900
X95300Y66500
X85900Y66800
X86900Y108400
X82400
X73200
X55500Y108000
X55102Y125787
Y129724
Y133661
X55100Y137600
X54800Y145500
X54500Y149600
X37545Y135595
X41624Y130887
X34224Y124588
X37300Y112600
X41200Y112400
X55500Y88000
X108613Y94413
X118275Y96100
X124600Y88500
X126500Y121700
X126300Y139700
Y143300
X147250Y121950
X29600Y142400
X5000Y149500
X170300Y180200
X173490Y179024
X156580Y276100
X115500Y286300
X96100Y286400
X68800Y307800
X57500Y301800
X39000Y306900
X49000Y200900
X57687Y204413
X60092Y202008
X62496Y199604
X64900Y197200
X66600Y193500
X77796Y194904
X80200Y192500
X75800Y180700
X72100Y178700
X65300Y180500
X60500Y180300
X55500Y167200
X55795Y157295
X34500Y166000
X94200Y180600
X101800Y181200
X110600Y180900
X126200Y167200
X126000Y162100
X139800Y163000
X139600Y159600
X144350Y165228
X151768Y169200
X152068Y179100
X144318Y180772
X102200Y209000
X122600Y321200
X98300Y350600
X75900Y346000
X61400Y346600
X47300Y347400
X50500Y333600
X43600Y333300
X38600Y326700
X24500Y335000
X19500Y335000
X14500Y335000
Y352700
X19400
X24300
X36100Y363800
X42200Y362900
X60200Y363200
X69100Y317000
T05
X139867Y92795
X171000Y92000
T06
X156000Y89000
X154900Y104100
X154400Y111400
X141000Y115000
X139275Y342300
X147250
X155225
X131300
X163200
T07
X7500Y61000
Y71000
X17500
Y61000
Y81000
X7500
Y91000
Y101000
Y111000
X17500
Y101000
Y91000
Y121000
X7500
Y131000
X17500
Y141000
X7500
T08
X161000Y120000
X171000
Y132000
X161000
X161500Y191500
X171500
X150000
X140000
X97000Y375000
Y385000
T09
X22500Y213000
X32500
X42500
X52500
Y223000
X62500
Y213000
X42500Y223000
X32500
X22500
X23000Y256000
X33000
X43000
X53000
Y266000
X63000
Y256000
X43000Y266000
X33000
X23000
X116000Y222500
X126000
X136000
X146000
X156000
Y212500
X146000
X136000
X126000
X116000
T10
X161500Y25500
Y61500
T11
X151500Y15500
Y35500
Y51500
Y71500
X171500
Y51500
Y35500
Y15500
T12
X36417Y236221
X44291
X52165
X60039
X67913
Y244094
X60039
X52165
X44291
X36417
X109252
X117126
X125000
X132874
X140748
Y236221
X132874
X125000
X117126
X109252
M30
