G04*
G04 #@! TF.GenerationSoftware,Altium Limited,Altium Designer,20.0.13 (296)*
G04*
G04 Layer_Color=16711935*
%FSLAX25Y25*%
%MOIN*%
G70*
G01*
G75*
%ADD24C,0.04737*%
G04:AMPARAMS|DCode=47|XSize=78.87mil|YSize=78.87mil|CornerRadius=12.86mil|HoleSize=0mil|Usage=FLASHONLY|Rotation=0.000|XOffset=0mil|YOffset=0mil|HoleType=Round|Shape=RoundedRectangle|*
%AMROUNDEDRECTD47*
21,1,0.07887,0.05315,0,0,0.0*
21,1,0.05315,0.07887,0,0,0.0*
1,1,0.02572,0.02657,-0.02657*
1,1,0.02572,-0.02657,-0.02657*
1,1,0.02572,-0.02657,0.02657*
1,1,0.02572,0.02657,0.02657*
%
%ADD47ROUNDEDRECTD47*%
%ADD48C,0.07887*%
%ADD49C,0.10642*%
%ADD50C,0.11824*%
%ADD51C,0.02375*%
%ADD52O,0.32296X0.09068*%
%ADD53O,0.04343X0.07099*%
%ADD54C,0.06706*%
%ADD55R,0.06706X0.06706*%
%ADD56C,0.07099*%
%ADD57R,0.07099X0.07099*%
G04:AMPARAMS|DCode=58|XSize=78.87mil|YSize=78.87mil|CornerRadius=12.86mil|HoleSize=0mil|Usage=FLASHONLY|Rotation=270.000|XOffset=0mil|YOffset=0mil|HoleType=Round|Shape=RoundedRectangle|*
%AMROUNDEDRECTD58*
21,1,0.07887,0.05315,0,0,270.0*
21,1,0.05315,0.07887,0,0,270.0*
1,1,0.02572,-0.02657,-0.02657*
1,1,0.02572,-0.02657,0.02657*
1,1,0.02572,0.02657,0.02657*
1,1,0.02572,0.02657,-0.02657*
%
%ADD58ROUNDEDRECTD58*%
%ADD59C,0.03200*%
%ADD60C,0.02800*%
%ADD61C,0.05800*%
%ADD62C,0.02572*%
D24*
X130692Y189599D02*
D03*
X142900Y252600D02*
D03*
D47*
X161000Y120000D02*
D03*
X150000Y191500D02*
D03*
X171500D02*
D03*
X161000Y132000D02*
D03*
D48*
X171000Y120000D02*
D03*
X140000Y191500D02*
D03*
X161500D02*
D03*
X171000Y132000D02*
D03*
X97000Y375000D02*
D03*
D49*
X161500Y25500D02*
D03*
Y61500D02*
D03*
D50*
X151500Y15500D02*
D03*
X171500D02*
D03*
X151500Y35500D02*
D03*
X171500D02*
D03*
X151500Y51500D02*
D03*
X171500D02*
D03*
X151500Y71500D02*
D03*
X171500D02*
D03*
D51*
X109252Y244094D02*
D03*
X117126D02*
D03*
X125000D02*
D03*
X132874D02*
D03*
X140748D02*
D03*
Y236221D02*
D03*
X132874D02*
D03*
X125000D02*
D03*
X117126D02*
D03*
X109252D02*
D03*
X36417D02*
D03*
X44291D02*
D03*
X52165D02*
D03*
X60039D02*
D03*
X67913D02*
D03*
Y244094D02*
D03*
X60039D02*
D03*
X52165D02*
D03*
X44291D02*
D03*
X36417D02*
D03*
D52*
X88583Y240158D02*
D03*
D53*
X41508Y386000D02*
D03*
X67492D02*
D03*
D54*
X7500Y71000D02*
D03*
X17500D02*
D03*
Y61000D02*
D03*
X7500D02*
D03*
Y81000D02*
D03*
X17500D02*
D03*
Y111000D02*
D03*
X7500D02*
D03*
X17500Y101000D02*
D03*
X7500D02*
D03*
X17500Y91000D02*
D03*
X7500D02*
D03*
Y121000D02*
D03*
X17500D02*
D03*
X7500Y131000D02*
D03*
X17500D02*
D03*
X7500Y141000D02*
D03*
D55*
X17500D02*
D03*
D56*
X156000Y222500D02*
D03*
X146000D02*
D03*
X156000Y212500D02*
D03*
X146000D02*
D03*
X136000Y222500D02*
D03*
Y212500D02*
D03*
X126000Y222500D02*
D03*
Y212500D02*
D03*
X116000Y222500D02*
D03*
X63000Y266000D02*
D03*
X53000D02*
D03*
X63000Y256000D02*
D03*
X53000D02*
D03*
X43000Y266000D02*
D03*
Y256000D02*
D03*
X33000Y266000D02*
D03*
Y256000D02*
D03*
X23000Y266000D02*
D03*
X62500Y223000D02*
D03*
X52500D02*
D03*
X62500Y213000D02*
D03*
X52500D02*
D03*
X42500Y223000D02*
D03*
Y213000D02*
D03*
X32500Y223000D02*
D03*
Y213000D02*
D03*
X22500Y223000D02*
D03*
D57*
X116000Y212500D02*
D03*
X23000Y256000D02*
D03*
X22500Y213000D02*
D03*
D58*
X97000Y385000D02*
D03*
D59*
X97700Y39900D02*
D03*
X86182Y42656D02*
D03*
X126500Y121700D02*
D03*
X24400Y48700D02*
D03*
X41200Y112400D02*
D03*
X37300Y112600D02*
D03*
X55500Y88000D02*
D03*
X108613Y94413D02*
D03*
X147250Y121950D02*
D03*
X139800Y163000D02*
D03*
X139600Y159600D02*
D03*
X54500Y149600D02*
D03*
X54800Y145500D02*
D03*
X95300Y66500D02*
D03*
X85900Y66800D02*
D03*
X124600Y88500D02*
D03*
X118275Y96100D02*
D03*
X82400Y108400D02*
D03*
X86900D02*
D03*
X73200D02*
D03*
X55500Y108000D02*
D03*
X37545Y135595D02*
D03*
X29600Y142400D02*
D03*
X55500Y167200D02*
D03*
X34500Y166000D02*
D03*
X60500Y180300D02*
D03*
X102200Y209000D02*
D03*
X101800Y181200D02*
D03*
X110600Y180900D02*
D03*
X94200Y180600D02*
D03*
X72100Y178700D02*
D03*
X75800Y180700D02*
D03*
X49000Y200900D02*
D03*
X5000Y149500D02*
D03*
X55795Y157295D02*
D03*
X77796Y194904D02*
D03*
X80200Y192500D02*
D03*
X65300Y180500D02*
D03*
X66600Y193500D02*
D03*
X57687Y204413D02*
D03*
X60092Y202008D02*
D03*
X62496Y199604D02*
D03*
X64900Y197200D02*
D03*
X34224Y124588D02*
D03*
X41624Y130887D02*
D03*
X55102Y125787D02*
D03*
Y129724D02*
D03*
Y133661D02*
D03*
X55100Y137600D02*
D03*
D60*
X115900Y44100D02*
D03*
X131900Y60200D02*
D03*
X108400Y22600D02*
D03*
X83125Y21346D02*
D03*
X126500Y52300D02*
D03*
X122700Y78300D02*
D03*
Y68500D02*
D03*
X55500Y76800D02*
D03*
Y66100D02*
D03*
X105600Y50400D02*
D03*
Y44100D02*
D03*
X92100Y33500D02*
D03*
X98400Y33400D02*
D03*
X73300Y14300D02*
D03*
X79500Y33600D02*
D03*
X72100Y41100D02*
D03*
X60200Y34700D02*
D03*
X60500Y50500D02*
D03*
X119400Y174500D02*
D03*
X126100Y175500D02*
D03*
X87900Y86400D02*
D03*
X141500Y257200D02*
D03*
X121000Y178700D02*
D03*
D61*
X163200Y342300D02*
D03*
X155225D02*
D03*
X147250D02*
D03*
X139275D02*
D03*
X131300D02*
D03*
X154400Y111400D02*
D03*
X154900Y104100D02*
D03*
X156000Y89000D02*
D03*
X141000Y115000D02*
D03*
X171000Y92000D02*
D03*
D62*
X139800Y156100D02*
D03*
M02*
