G04*
G04 #@! TF.GenerationSoftware,Altium Limited,Altium Designer,20.1.8 (145)*
G04*
G04 Layer_Color=16711935*
%FSLAX25Y25*%
%MOIN*%
G70*
G04*
G04 #@! TF.SameCoordinates,AD2E53F2-275F-43D4-B2A7-20F968E01B46*
G04*
G04*
G04 #@! TF.FilePolarity,Negative*
G04*
G01*
G75*
%ADD24C,0.04737*%
G04:AMPARAMS|DCode=47|XSize=78.87mil|YSize=78.87mil|CornerRadius=12.86mil|HoleSize=0mil|Usage=FLASHONLY|Rotation=0.000|XOffset=0mil|YOffset=0mil|HoleType=Round|Shape=RoundedRectangle|*
%AMROUNDEDRECTD47*
21,1,0.07887,0.05315,0,0,0.0*
21,1,0.05315,0.07887,0,0,0.0*
1,1,0.02572,0.02657,-0.02657*
1,1,0.02572,-0.02657,-0.02657*
1,1,0.02572,-0.02657,0.02657*
1,1,0.02572,0.02657,0.02657*
%
%ADD47ROUNDEDRECTD47*%
%ADD48C,0.07887*%
%ADD49C,0.10642*%
%ADD50C,0.11824*%
%ADD51C,0.02375*%
%ADD52O,0.32296X0.09068*%
%ADD53O,0.04343X0.07099*%
%ADD54C,0.06706*%
%ADD55R,0.06706X0.06706*%
%ADD56C,0.07099*%
%ADD57R,0.07099X0.07099*%
G04:AMPARAMS|DCode=58|XSize=78.87mil|YSize=78.87mil|CornerRadius=12.86mil|HoleSize=0mil|Usage=FLASHONLY|Rotation=270.000|XOffset=0mil|YOffset=0mil|HoleType=Round|Shape=RoundedRectangle|*
%AMROUNDEDRECTD58*
21,1,0.07887,0.05315,0,0,270.0*
21,1,0.05315,0.07887,0,0,270.0*
1,1,0.02572,-0.02657,-0.02657*
1,1,0.02572,-0.02657,0.02657*
1,1,0.02572,0.02657,0.02657*
1,1,0.02572,0.02657,-0.02657*
%
%ADD58ROUNDEDRECTD58*%
%ADD59C,0.03200*%
%ADD60C,0.02800*%
%ADD61C,0.05800*%
%ADD62C,0.02572*%
G36*
X155148Y387644D02*
X156072D01*
Y387566D01*
X156457D01*
Y387490D01*
X156920D01*
Y387412D01*
X157151D01*
Y387335D01*
X157536D01*
Y387258D01*
X157767D01*
Y387181D01*
X158076D01*
Y387104D01*
X158307D01*
Y387027D01*
X158538D01*
Y386950D01*
X158769D01*
Y386873D01*
X158923D01*
Y386796D01*
X159154D01*
Y386719D01*
X159386D01*
Y386642D01*
X159540D01*
Y386565D01*
X159694D01*
Y386488D01*
X159848D01*
Y386411D01*
X160002D01*
Y386334D01*
X160156D01*
Y386257D01*
X160310D01*
Y386180D01*
X160464D01*
Y386103D01*
X160618D01*
Y386026D01*
X160773D01*
Y385948D01*
X160850D01*
Y385871D01*
X161004D01*
Y385794D01*
X161158D01*
Y385717D01*
X161235D01*
Y385640D01*
X161389D01*
Y385563D01*
X161466D01*
Y385486D01*
X161620D01*
Y385409D01*
X161697D01*
Y385332D01*
X161774D01*
Y385255D01*
X161928D01*
Y385178D01*
X162005D01*
Y385101D01*
X162082D01*
Y385024D01*
X162160D01*
Y384947D01*
X162236D01*
Y384870D01*
X162314D01*
Y384793D01*
X162391D01*
Y384716D01*
X162468D01*
Y384639D01*
X162545D01*
Y384561D01*
X162622D01*
Y384484D01*
X162699D01*
Y384407D01*
Y384330D01*
X162776D01*
Y384253D01*
X162853D01*
Y384176D01*
Y384099D01*
X162930D01*
Y384022D01*
Y383945D01*
X163007D01*
Y383868D01*
Y383791D01*
Y383714D01*
X163084D01*
Y383637D01*
Y383560D01*
Y383483D01*
Y383406D01*
Y383329D01*
Y383252D01*
Y383174D01*
Y383097D01*
Y383020D01*
Y382943D01*
Y382866D01*
Y382789D01*
X163007D01*
Y382712D01*
Y382635D01*
Y382558D01*
X162930D01*
Y382481D01*
Y382404D01*
Y382327D01*
Y382250D01*
X162853D01*
Y382173D01*
Y382096D01*
Y382019D01*
X162776D01*
Y381942D01*
Y381865D01*
X162699D01*
Y381787D01*
Y381710D01*
Y381633D01*
X162622D01*
Y381556D01*
Y381479D01*
X162545D01*
Y381402D01*
Y381325D01*
Y381248D01*
X162468D01*
Y381171D01*
Y381094D01*
X162391D01*
Y381017D01*
Y380940D01*
Y380863D01*
X162314D01*
Y380786D01*
Y380709D01*
Y380632D01*
X162236D01*
Y380555D01*
Y380478D01*
X162160D01*
Y380401D01*
Y380324D01*
Y380246D01*
X162082D01*
Y380169D01*
Y380092D01*
X162005D01*
Y380015D01*
Y379938D01*
X161928D01*
Y379861D01*
Y379784D01*
Y379707D01*
X161851D01*
Y379630D01*
Y379553D01*
X161774D01*
Y379476D01*
Y379399D01*
Y379322D01*
X161697D01*
Y379245D01*
Y379168D01*
X161620D01*
Y379091D01*
Y379014D01*
Y378937D01*
X161543D01*
Y378859D01*
Y378782D01*
X161466D01*
Y378705D01*
Y378628D01*
Y378551D01*
X161389D01*
Y378474D01*
Y378397D01*
X161312D01*
Y378320D01*
Y378243D01*
Y378166D01*
X161235D01*
Y378089D01*
Y378012D01*
X161158D01*
Y377935D01*
Y377858D01*
X161081D01*
Y377781D01*
Y377704D01*
Y377627D01*
X161004D01*
Y377550D01*
Y377472D01*
Y377395D01*
X160927D01*
Y377318D01*
Y377241D01*
X160850D01*
Y377164D01*
Y377087D01*
Y377010D01*
X160773D01*
Y376933D01*
Y376856D01*
X160696D01*
Y376779D01*
Y376702D01*
Y376625D01*
X160618D01*
Y376548D01*
Y376471D01*
X160541D01*
Y376394D01*
Y376317D01*
Y376240D01*
X160464D01*
Y376163D01*
Y376085D01*
X160387D01*
Y376009D01*
Y375931D01*
Y375854D01*
X160310D01*
Y375777D01*
Y375700D01*
X160233D01*
Y375623D01*
Y375546D01*
X160156D01*
Y375469D01*
Y375392D01*
Y375315D01*
X160079D01*
Y375238D01*
Y375161D01*
Y375084D01*
X160002D01*
Y375007D01*
Y374930D01*
X159925D01*
Y374853D01*
Y374776D01*
Y374699D01*
X159848D01*
Y374622D01*
Y374545D01*
X159771D01*
Y374467D01*
Y374390D01*
X159694D01*
Y374313D01*
Y374236D01*
X159617D01*
Y374159D01*
Y374082D01*
Y374005D01*
X159540D01*
Y373928D01*
Y373851D01*
X159463D01*
Y373774D01*
Y373697D01*
X159386D01*
Y373620D01*
Y373543D01*
X159309D01*
Y373466D01*
Y373389D01*
X159231D01*
Y373312D01*
X159154D01*
Y373235D01*
Y373158D01*
X159077D01*
Y373080D01*
Y373003D01*
X159000D01*
Y372926D01*
X158923D01*
Y372849D01*
Y372772D01*
X158846D01*
Y372695D01*
X158769D01*
Y372618D01*
X158692D01*
Y372541D01*
X158615D01*
Y372464D01*
X158538D01*
Y372387D01*
X158461D01*
Y372310D01*
X158384D01*
Y372233D01*
X158307D01*
Y372156D01*
X158230D01*
Y372079D01*
X158153D01*
Y372002D01*
X158076D01*
Y371925D01*
X157922D01*
Y371848D01*
X157767D01*
Y371771D01*
X157690D01*
Y371693D01*
X157536D01*
Y371616D01*
X157382D01*
Y371539D01*
X157228D01*
Y371462D01*
X156997D01*
Y371385D01*
X156766D01*
Y371308D01*
X156612D01*
Y371231D01*
X156303D01*
Y371154D01*
X155995D01*
Y371077D01*
X155533D01*
Y371000D01*
X154531D01*
Y370923D01*
X154300D01*
Y371000D01*
X153221D01*
Y371077D01*
X152682D01*
Y371154D01*
X152451D01*
Y371231D01*
X152066D01*
Y371308D01*
X151834D01*
Y371385D01*
X151603D01*
Y371462D01*
X151372D01*
Y371539D01*
X151141D01*
Y371616D01*
X150987D01*
Y371693D01*
X150833D01*
Y371771D01*
X150679D01*
Y371848D01*
X150524D01*
Y371925D01*
X150370D01*
Y372002D01*
X150216D01*
Y372079D01*
X150139D01*
Y372156D01*
X150062D01*
Y372233D01*
X149908D01*
Y372310D01*
X149831D01*
Y372387D01*
X149754D01*
Y372464D01*
X149677D01*
Y372541D01*
X149600D01*
Y372618D01*
Y372695D01*
X149523D01*
Y372772D01*
X149446D01*
Y372849D01*
X149369D01*
Y372926D01*
Y373003D01*
X149292D01*
Y373080D01*
Y373158D01*
X149214D01*
Y373235D01*
Y373312D01*
X149137D01*
Y373389D01*
Y373466D01*
X149060D01*
Y373543D01*
Y373620D01*
X148983D01*
Y373697D01*
Y373774D01*
Y373851D01*
X148906D01*
Y373928D01*
Y374005D01*
X148829D01*
Y374082D01*
Y374159D01*
Y374236D01*
X148752D01*
Y374313D01*
Y374390D01*
Y374467D01*
Y374545D01*
X148675D01*
Y374622D01*
Y374699D01*
Y374776D01*
X148598D01*
Y374853D01*
Y374930D01*
Y375007D01*
X148521D01*
Y375084D01*
Y375161D01*
Y375238D01*
X148444D01*
Y375315D01*
Y375392D01*
Y375469D01*
X148367D01*
Y375546D01*
Y375623D01*
Y375700D01*
X148290D01*
Y375777D01*
Y375854D01*
Y375931D01*
Y376009D01*
X148213D01*
Y376085D01*
Y376163D01*
Y376240D01*
X148136D01*
Y376317D01*
Y376394D01*
Y376471D01*
X148059D01*
Y376548D01*
Y376625D01*
Y376702D01*
Y376779D01*
X147982D01*
Y376856D01*
Y376933D01*
Y377010D01*
X147905D01*
Y377087D01*
Y377164D01*
Y377241D01*
X147827D01*
Y377318D01*
Y377395D01*
Y377472D01*
X147750D01*
Y377550D01*
Y377627D01*
Y377704D01*
X147673D01*
Y377781D01*
Y377858D01*
Y377935D01*
X147596D01*
Y378012D01*
Y378089D01*
Y378166D01*
Y378243D01*
X147519D01*
Y378320D01*
Y378397D01*
Y378474D01*
X147442D01*
Y378551D01*
Y378628D01*
Y378705D01*
X147365D01*
Y378782D01*
Y378859D01*
Y378937D01*
X147288D01*
Y379014D01*
Y379091D01*
Y379168D01*
X147211D01*
Y379245D01*
Y379322D01*
Y379399D01*
X147134D01*
Y379476D01*
Y379553D01*
Y379630D01*
Y379707D01*
X147057D01*
Y379784D01*
Y379861D01*
Y379938D01*
X146980D01*
Y380015D01*
Y380092D01*
Y380169D01*
X146903D01*
Y380246D01*
Y380324D01*
Y380401D01*
X146826D01*
Y380478D01*
Y380555D01*
Y380632D01*
X146749D01*
Y380709D01*
Y380786D01*
Y380863D01*
X146672D01*
Y380940D01*
Y381017D01*
Y381094D01*
Y381171D01*
X146595D01*
Y381248D01*
Y381325D01*
Y381402D01*
X146518D01*
Y381479D01*
Y381556D01*
Y381633D01*
X146440D01*
Y381710D01*
Y381787D01*
Y381865D01*
X146363D01*
Y381942D01*
Y382019D01*
X146286D01*
Y382096D01*
Y382173D01*
Y382250D01*
Y382327D01*
X146209D01*
Y382404D01*
Y382481D01*
Y382558D01*
Y382635D01*
X146132D01*
Y382712D01*
Y382789D01*
Y382866D01*
Y382943D01*
Y383020D01*
Y383097D01*
Y383174D01*
Y383252D01*
Y383329D01*
X146209D01*
Y383406D01*
Y383483D01*
Y383560D01*
Y383637D01*
X146286D01*
Y383714D01*
Y383791D01*
X146363D01*
Y383868D01*
Y383945D01*
X146440D01*
Y384022D01*
X146518D01*
Y384099D01*
Y384176D01*
X146595D01*
Y384253D01*
X146672D01*
Y384330D01*
X146749D01*
Y384407D01*
Y384484D01*
X146826D01*
Y384561D01*
X146903D01*
Y384639D01*
X146980D01*
Y384716D01*
X147057D01*
Y384793D01*
X147134D01*
Y384870D01*
X147288D01*
Y384947D01*
X147365D01*
Y385024D01*
X147442D01*
Y385101D01*
X147519D01*
Y385178D01*
X147596D01*
Y385255D01*
X147750D01*
Y385332D01*
X147827D01*
Y385409D01*
X147905D01*
Y385486D01*
X148059D01*
Y385563D01*
X148136D01*
Y385640D01*
X148290D01*
Y385717D01*
X148367D01*
Y385794D01*
X148521D01*
Y385871D01*
X148598D01*
Y385948D01*
X148752D01*
Y386026D01*
X148906D01*
Y386103D01*
X148983D01*
Y386180D01*
X149137D01*
Y386257D01*
X149292D01*
Y386334D01*
X149446D01*
Y386411D01*
X149600D01*
Y386488D01*
X149754D01*
Y386565D01*
X149908D01*
Y386642D01*
X150062D01*
Y386719D01*
X150293D01*
Y386796D01*
X150447D01*
Y386873D01*
X150601D01*
Y386950D01*
X150833D01*
Y387027D01*
X151064D01*
Y387104D01*
X151295D01*
Y387181D01*
X151526D01*
Y387258D01*
X151757D01*
Y387335D01*
X152143D01*
Y387412D01*
X152374D01*
Y387490D01*
X152836D01*
Y387566D01*
X153144D01*
Y387644D01*
X154069D01*
Y387721D01*
X155148D01*
Y387644D01*
D02*
G37*
G36*
X144514Y382558D02*
Y382481D01*
Y382404D01*
X144591D01*
Y382327D01*
Y382250D01*
Y382173D01*
Y382096D01*
X144668D01*
Y382019D01*
Y381942D01*
Y381865D01*
Y381787D01*
X144745D01*
Y381710D01*
Y381633D01*
Y381556D01*
X144822D01*
Y381479D01*
Y381402D01*
Y381325D01*
X144899D01*
Y381248D01*
Y381171D01*
Y381094D01*
X144976D01*
Y381017D01*
Y380940D01*
Y380863D01*
X145054D01*
Y380786D01*
Y380709D01*
Y380632D01*
X145131D01*
Y380555D01*
Y380478D01*
Y380401D01*
X145208D01*
Y380324D01*
Y380246D01*
Y380169D01*
Y380092D01*
X145285D01*
Y380015D01*
Y379938D01*
Y379861D01*
X145362D01*
Y379784D01*
Y379707D01*
Y379630D01*
X145439D01*
Y379553D01*
Y379476D01*
Y379399D01*
X145516D01*
Y379322D01*
Y379245D01*
Y379168D01*
X145593D01*
Y379091D01*
Y379014D01*
Y378937D01*
Y378859D01*
X145670D01*
Y378782D01*
Y378705D01*
X145747D01*
Y378628D01*
Y378551D01*
Y378474D01*
Y378397D01*
X145824D01*
Y378320D01*
Y378243D01*
Y378166D01*
X145901D01*
Y378089D01*
Y378012D01*
Y377935D01*
X145978D01*
Y377858D01*
Y377781D01*
Y377704D01*
Y377627D01*
X146055D01*
Y377550D01*
Y377472D01*
X146132D01*
Y377395D01*
Y377318D01*
Y377241D01*
Y377164D01*
X146209D01*
Y377087D01*
Y377010D01*
Y376933D01*
X146286D01*
Y376856D01*
Y376779D01*
Y376702D01*
X146363D01*
Y376625D01*
Y376548D01*
Y376471D01*
Y376394D01*
X146440D01*
Y376317D01*
Y376240D01*
X146518D01*
Y376163D01*
Y376085D01*
Y376009D01*
Y375931D01*
X146595D01*
Y375854D01*
Y375777D01*
X146672D01*
Y375700D01*
Y375623D01*
Y375546D01*
Y375469D01*
X146749D01*
Y375392D01*
Y375315D01*
Y375238D01*
X146826D01*
Y375161D01*
Y375084D01*
Y375007D01*
X146903D01*
Y374930D01*
Y374853D01*
Y374776D01*
Y374699D01*
X146980D01*
Y374622D01*
Y374545D01*
X147057D01*
Y374467D01*
Y374390D01*
Y374313D01*
Y374236D01*
X147134D01*
Y374159D01*
Y374082D01*
Y374005D01*
X147211D01*
Y373928D01*
Y373851D01*
Y373774D01*
X147288D01*
Y373697D01*
Y373620D01*
Y373543D01*
X147365D01*
Y373466D01*
Y373389D01*
Y373312D01*
X147442D01*
Y373235D01*
Y373158D01*
Y373080D01*
X147519D01*
Y373003D01*
Y372926D01*
X147596D01*
Y372849D01*
Y372772D01*
X147673D01*
Y372695D01*
Y372618D01*
X147750D01*
Y372541D01*
Y372464D01*
X147827D01*
Y372387D01*
Y372310D01*
X147905D01*
Y372233D01*
Y372156D01*
X147982D01*
Y372079D01*
Y372002D01*
X148059D01*
Y371925D01*
X148136D01*
Y371848D01*
X148213D01*
Y371771D01*
Y371693D01*
X148290D01*
Y371616D01*
X148367D01*
Y371539D01*
X148444D01*
Y371462D01*
X148521D01*
Y371385D01*
X148367D01*
Y371308D01*
X148213D01*
Y371231D01*
X147982D01*
Y371154D01*
X147827D01*
Y371077D01*
X147673D01*
Y371000D01*
X147442D01*
Y370923D01*
X147288D01*
Y370846D01*
X147057D01*
Y370769D01*
X146903D01*
Y370692D01*
X146672D01*
Y370615D01*
X146440D01*
Y370538D01*
X146132D01*
Y370461D01*
X145131D01*
Y370538D01*
X144976D01*
Y370615D01*
X144822D01*
Y370692D01*
X144745D01*
Y370769D01*
X144668D01*
Y370846D01*
X144514D01*
Y370923D01*
X144437D01*
Y371000D01*
X144360D01*
Y371077D01*
X144283D01*
Y371154D01*
X144206D01*
Y371231D01*
Y371308D01*
X144129D01*
Y371385D01*
X144052D01*
Y371462D01*
X143975D01*
Y371539D01*
X143898D01*
Y371616D01*
Y371693D01*
X143821D01*
Y371771D01*
X143744D01*
Y371848D01*
X143667D01*
Y371925D01*
Y372002D01*
X143590D01*
Y372079D01*
X143512D01*
Y372156D01*
Y372233D01*
X143435D01*
Y372310D01*
X143358D01*
Y372387D01*
Y372464D01*
X143281D01*
Y372541D01*
X143204D01*
Y372618D01*
Y372695D01*
X143127D01*
Y372772D01*
X143050D01*
Y372849D01*
Y372926D01*
X142973D01*
Y373003D01*
X142896D01*
Y373080D01*
Y373158D01*
X142819D01*
Y373235D01*
X142742D01*
Y373312D01*
Y373389D01*
X142665D01*
Y373466D01*
X142588D01*
Y373543D01*
Y373620D01*
X142511D01*
Y373697D01*
Y373774D01*
X142434D01*
Y373851D01*
X142357D01*
Y373928D01*
Y374005D01*
X142280D01*
Y374082D01*
X142203D01*
Y374159D01*
Y374236D01*
X142125D01*
Y374313D01*
Y374390D01*
X142049D01*
Y374467D01*
X141971D01*
Y374545D01*
Y374622D01*
X141894D01*
Y374699D01*
Y374776D01*
X141817D01*
Y374853D01*
X141740D01*
Y374930D01*
Y375007D01*
X141663D01*
Y375084D01*
X141586D01*
Y375161D01*
Y375238D01*
X141509D01*
Y375315D01*
Y375392D01*
X141432D01*
Y375469D01*
X141355D01*
Y375546D01*
Y375623D01*
X141278D01*
Y375700D01*
Y375777D01*
X141201D01*
Y375854D01*
X141124D01*
Y375931D01*
Y376009D01*
X141047D01*
Y376085D01*
Y376163D01*
X140970D01*
Y376240D01*
X140893D01*
Y376317D01*
Y376394D01*
X140816D01*
Y376471D01*
X140739D01*
Y376548D01*
Y376625D01*
X140662D01*
Y376702D01*
Y376779D01*
X140584D01*
Y376856D01*
Y376933D01*
X140507D01*
Y377010D01*
Y377087D01*
X140430D01*
Y377164D01*
Y377241D01*
X140353D01*
Y377318D01*
Y377395D01*
Y377472D01*
X140276D01*
Y377550D01*
Y377627D01*
X140199D01*
Y377704D01*
Y377781D01*
X140122D01*
Y377858D01*
Y377935D01*
Y378012D01*
X140045D01*
Y378089D01*
Y378166D01*
Y378243D01*
X139968D01*
Y378320D01*
Y378397D01*
X139891D01*
Y378474D01*
Y378551D01*
Y378628D01*
Y378705D01*
X139814D01*
Y378782D01*
Y378859D01*
Y378937D01*
Y379014D01*
Y379091D01*
Y379168D01*
Y379245D01*
Y379322D01*
Y379399D01*
Y379476D01*
Y379553D01*
Y379630D01*
Y379707D01*
Y379784D01*
X139891D01*
Y379861D01*
Y379938D01*
X139968D01*
Y380015D01*
Y380092D01*
X140045D01*
Y380169D01*
Y380246D01*
X140122D01*
Y380324D01*
X140199D01*
Y380401D01*
X140276D01*
Y380478D01*
X140353D01*
Y380555D01*
X140430D01*
Y380632D01*
X140507D01*
Y380709D01*
X140584D01*
Y380786D01*
X140739D01*
Y380863D01*
X140816D01*
Y380940D01*
X140893D01*
Y381017D01*
X141047D01*
Y381094D01*
X141201D01*
Y381171D01*
X141278D01*
Y381248D01*
X141432D01*
Y381325D01*
X141586D01*
Y381402D01*
X141740D01*
Y381479D01*
X141894D01*
Y381556D01*
X141971D01*
Y381633D01*
X142203D01*
Y381710D01*
X142357D01*
Y381787D01*
X142511D01*
Y381865D01*
X142665D01*
Y381942D01*
X142819D01*
Y382019D01*
X143050D01*
Y382096D01*
X143204D01*
Y382173D01*
X143435D01*
Y382250D01*
X143590D01*
Y382327D01*
X143821D01*
Y382404D01*
X143975D01*
Y382481D01*
X144206D01*
Y382558D01*
X144437D01*
Y382635D01*
X144514D01*
Y382558D01*
D02*
G37*
G36*
X164856Y382250D02*
X165010D01*
Y382173D01*
X165242D01*
Y382096D01*
X165396D01*
Y382019D01*
X165550D01*
Y381942D01*
X165781D01*
Y381865D01*
X165935D01*
Y381787D01*
X166166D01*
Y381710D01*
X166243D01*
Y381633D01*
X166474D01*
Y381556D01*
X166629D01*
Y381479D01*
X166783D01*
Y381402D01*
X166937D01*
Y381325D01*
X167091D01*
Y381248D01*
X167322D01*
Y381171D01*
X167399D01*
Y381094D01*
X167553D01*
Y381017D01*
X167707D01*
Y380940D01*
X167861D01*
Y380863D01*
X168016D01*
Y380786D01*
X168093D01*
Y380709D01*
X168247D01*
Y380632D01*
X168401D01*
Y380555D01*
X168478D01*
Y380478D01*
X168632D01*
Y380401D01*
X168709D01*
Y380324D01*
X168863D01*
Y380246D01*
X168940D01*
Y380169D01*
X169017D01*
Y380092D01*
X169094D01*
Y380015D01*
X169171D01*
Y379938D01*
X169248D01*
Y379861D01*
X169325D01*
Y379784D01*
Y379707D01*
X169403D01*
Y379630D01*
Y379553D01*
X169480D01*
Y379476D01*
Y379399D01*
Y379322D01*
Y379245D01*
Y379168D01*
Y379091D01*
Y379014D01*
Y378937D01*
X169403D01*
Y378859D01*
Y378782D01*
X169325D01*
Y378705D01*
Y378628D01*
Y378551D01*
X169248D01*
Y378474D01*
Y378397D01*
X169171D01*
Y378320D01*
Y378243D01*
X169094D01*
Y378166D01*
Y378089D01*
X169017D01*
Y378012D01*
Y377935D01*
X168940D01*
Y377858D01*
Y377781D01*
X168863D01*
Y377704D01*
X168786D01*
Y377627D01*
Y377550D01*
X168709D01*
Y377472D01*
Y377395D01*
X168632D01*
Y377318D01*
Y377241D01*
X168555D01*
Y377164D01*
Y377087D01*
X168478D01*
Y377010D01*
X168401D01*
Y376933D01*
Y376856D01*
X168324D01*
Y376779D01*
Y376702D01*
X168247D01*
Y376625D01*
Y376548D01*
X168170D01*
Y376471D01*
Y376394D01*
X168093D01*
Y376317D01*
Y376240D01*
X168016D01*
Y376163D01*
Y376085D01*
X167938D01*
Y376009D01*
X167861D01*
Y375931D01*
Y375854D01*
X167784D01*
Y375777D01*
Y375700D01*
X167707D01*
Y375623D01*
Y375546D01*
X167630D01*
Y375469D01*
Y375392D01*
X167553D01*
Y375315D01*
X167476D01*
Y375238D01*
Y375161D01*
X167399D01*
Y375084D01*
Y375007D01*
X167322D01*
Y374930D01*
Y374853D01*
X167245D01*
Y374776D01*
Y374699D01*
X167168D01*
Y374622D01*
X167091D01*
Y374545D01*
Y374467D01*
X167014D01*
Y374390D01*
Y374313D01*
X166937D01*
Y374236D01*
Y374159D01*
X166860D01*
Y374082D01*
Y374005D01*
X166783D01*
Y373928D01*
Y373851D01*
X166706D01*
Y373774D01*
Y373697D01*
X166629D01*
Y373620D01*
X166551D01*
Y373543D01*
Y373466D01*
X166474D01*
Y373389D01*
Y373312D01*
X166397D01*
Y373235D01*
Y373158D01*
X166320D01*
Y373080D01*
Y373003D01*
X166243D01*
Y372926D01*
X166166D01*
Y372849D01*
Y372772D01*
X166089D01*
Y372695D01*
Y372618D01*
X166012D01*
Y372541D01*
Y372464D01*
X165935D01*
Y372387D01*
Y372310D01*
X165858D01*
Y372233D01*
X165781D01*
Y372156D01*
X165704D01*
Y372079D01*
Y372002D01*
X165627D01*
Y371925D01*
X165550D01*
Y371848D01*
X165473D01*
Y371771D01*
X165396D01*
Y371693D01*
Y371616D01*
X165319D01*
Y371539D01*
X165242D01*
Y371462D01*
X165165D01*
Y371385D01*
X165087D01*
Y371308D01*
X165010D01*
Y371231D01*
X164933D01*
Y371154D01*
X164856D01*
Y371077D01*
X164779D01*
Y371000D01*
X164702D01*
Y370923D01*
X164625D01*
Y370846D01*
X164548D01*
Y370769D01*
X164394D01*
Y370692D01*
X164317D01*
Y370615D01*
X164163D01*
Y370538D01*
X164009D01*
Y370461D01*
X163778D01*
Y370384D01*
X162699D01*
Y370461D01*
X162314D01*
Y370538D01*
X162005D01*
Y370615D01*
X161774D01*
Y370692D01*
X161466D01*
Y370769D01*
X161312D01*
Y370846D01*
X161081D01*
Y370923D01*
X160850D01*
Y371000D01*
X160696D01*
Y371077D01*
X160464D01*
Y371154D01*
X160310D01*
Y371231D01*
X160079D01*
Y371308D01*
X159925D01*
Y371385D01*
X159848D01*
Y371462D01*
X159925D01*
Y371539D01*
X160002D01*
Y371616D01*
Y371693D01*
X160079D01*
Y371771D01*
X160156D01*
Y371848D01*
X160233D01*
Y371925D01*
X160310D01*
Y372002D01*
Y372079D01*
X160387D01*
Y372156D01*
X160464D01*
Y372233D01*
Y372310D01*
X160541D01*
Y372387D01*
X160618D01*
Y372464D01*
Y372541D01*
X160696D01*
Y372618D01*
Y372695D01*
X160773D01*
Y372772D01*
Y372849D01*
X160850D01*
Y372926D01*
Y373003D01*
X160927D01*
Y373080D01*
Y373158D01*
X161004D01*
Y373235D01*
Y373312D01*
X161081D01*
Y373389D01*
Y373466D01*
X161158D01*
Y373543D01*
Y373620D01*
X161235D01*
Y373697D01*
Y373774D01*
Y373851D01*
X161312D01*
Y373928D01*
Y374005D01*
X161389D01*
Y374082D01*
Y374159D01*
X161466D01*
Y374236D01*
Y374313D01*
Y374390D01*
X161543D01*
Y374467D01*
Y374545D01*
X161620D01*
Y374622D01*
Y374699D01*
Y374776D01*
X161697D01*
Y374853D01*
Y374930D01*
X161774D01*
Y375007D01*
Y375084D01*
Y375161D01*
X161851D01*
Y375238D01*
Y375315D01*
X161928D01*
Y375392D01*
Y375469D01*
Y375546D01*
X162005D01*
Y375623D01*
Y375700D01*
X162082D01*
Y375777D01*
Y375854D01*
Y375931D01*
X162160D01*
Y376009D01*
Y376085D01*
X162236D01*
Y376163D01*
Y376240D01*
Y376317D01*
X162314D01*
Y376394D01*
Y376471D01*
X162391D01*
Y376548D01*
Y376625D01*
Y376702D01*
X162468D01*
Y376779D01*
Y376856D01*
X162545D01*
Y376933D01*
Y377010D01*
Y377087D01*
X162622D01*
Y377164D01*
Y377241D01*
X162699D01*
Y377318D01*
Y377395D01*
Y377472D01*
X162776D01*
Y377550D01*
Y377627D01*
X162853D01*
Y377704D01*
Y377781D01*
Y377858D01*
X162930D01*
Y377935D01*
Y378012D01*
X163007D01*
Y378089D01*
Y378166D01*
X163084D01*
Y378243D01*
Y378320D01*
Y378397D01*
X163161D01*
Y378474D01*
Y378551D01*
Y378628D01*
X163238D01*
Y378705D01*
Y378782D01*
X163315D01*
Y378859D01*
Y378937D01*
X163392D01*
Y379014D01*
Y379091D01*
Y379168D01*
X163469D01*
Y379245D01*
Y379322D01*
X163546D01*
Y379399D01*
Y379476D01*
Y379553D01*
X163623D01*
Y379630D01*
Y379707D01*
X163700D01*
Y379784D01*
Y379861D01*
Y379938D01*
X163778D01*
Y380015D01*
Y380092D01*
X163855D01*
Y380169D01*
Y380246D01*
Y380324D01*
X163932D01*
Y380401D01*
Y380478D01*
X164009D01*
Y380555D01*
Y380632D01*
Y380709D01*
X164086D01*
Y380786D01*
Y380863D01*
X164163D01*
Y380940D01*
Y381017D01*
Y381094D01*
X164240D01*
Y381171D01*
Y381248D01*
X164317D01*
Y381325D01*
Y381402D01*
Y381479D01*
X164394D01*
Y381556D01*
Y381633D01*
Y381710D01*
X164471D01*
Y381787D01*
Y381865D01*
Y381942D01*
X164548D01*
Y382019D01*
Y382096D01*
Y382173D01*
X164625D01*
Y382250D01*
Y382327D01*
X164856D01*
Y382250D01*
D02*
G37*
G36*
X139043Y376317D02*
Y376240D01*
X139120D01*
Y376163D01*
Y376085D01*
X139198D01*
Y376009D01*
Y375931D01*
X139275D01*
Y375854D01*
Y375777D01*
X139352D01*
Y375700D01*
Y375623D01*
X139429D01*
Y375546D01*
X139506D01*
Y375469D01*
Y375392D01*
X139583D01*
Y375315D01*
X139660D01*
Y375238D01*
Y375161D01*
X139737D01*
Y375084D01*
Y375007D01*
X139814D01*
Y374930D01*
X139891D01*
Y374853D01*
Y374776D01*
X139968D01*
Y374699D01*
Y374622D01*
X140045D01*
Y374545D01*
X140122D01*
Y374467D01*
Y374390D01*
X140199D01*
Y374313D01*
Y374236D01*
X140276D01*
Y374159D01*
X140353D01*
Y374082D01*
Y374005D01*
X140430D01*
Y373928D01*
Y373851D01*
X140507D01*
Y373774D01*
X140584D01*
Y373697D01*
Y373620D01*
X140662D01*
Y373543D01*
X140739D01*
Y373466D01*
Y373389D01*
X140816D01*
Y373312D01*
Y373235D01*
X140893D01*
Y373158D01*
X140970D01*
Y373080D01*
Y373003D01*
X141047D01*
Y372926D01*
X141124D01*
Y372849D01*
Y372772D01*
X141201D01*
Y372695D01*
Y372618D01*
X141278D01*
Y372541D01*
X141355D01*
Y372464D01*
Y372387D01*
X141432D01*
Y372310D01*
X141509D01*
Y372233D01*
Y372156D01*
X141586D01*
Y372079D01*
X141663D01*
Y372002D01*
Y371925D01*
X141740D01*
Y371848D01*
X141817D01*
Y371771D01*
Y371693D01*
X141740D01*
Y371616D01*
X141509D01*
Y371539D01*
X141355D01*
Y371462D01*
X141124D01*
Y371385D01*
X140970D01*
Y371308D01*
X140816D01*
Y371231D01*
X140584D01*
Y371154D01*
X140430D01*
Y371077D01*
X140199D01*
Y371000D01*
X140045D01*
Y370923D01*
X139814D01*
Y370846D01*
X139660D01*
Y370769D01*
X139506D01*
Y370692D01*
X139275D01*
Y370615D01*
X139120D01*
Y370538D01*
X138966D01*
Y370461D01*
X138735D01*
Y370384D01*
X138581D01*
Y370306D01*
X138350D01*
Y370229D01*
X138196D01*
Y370152D01*
X137965D01*
Y370075D01*
X137811D01*
Y369998D01*
X137579D01*
Y369921D01*
X137348D01*
Y369844D01*
X137117D01*
Y369767D01*
X136578D01*
Y369844D01*
Y369921D01*
Y369998D01*
X136501D01*
Y370075D01*
Y370152D01*
Y370229D01*
Y370306D01*
Y370384D01*
Y370461D01*
Y370538D01*
Y370615D01*
X136424D01*
Y370692D01*
Y370769D01*
Y370846D01*
Y370923D01*
Y371000D01*
Y371077D01*
Y371154D01*
Y371231D01*
Y371308D01*
Y371385D01*
X136501D01*
Y371462D01*
Y371539D01*
Y371616D01*
Y371693D01*
Y371771D01*
Y371848D01*
Y371925D01*
Y372002D01*
Y372079D01*
X136578D01*
Y372156D01*
Y372233D01*
Y372310D01*
Y372387D01*
Y372464D01*
X136655D01*
Y372541D01*
Y372618D01*
Y372695D01*
Y372772D01*
X136732D01*
Y372849D01*
Y372926D01*
Y373003D01*
Y373080D01*
X136809D01*
Y373158D01*
Y373235D01*
Y373312D01*
X136886D01*
Y373389D01*
Y373466D01*
Y373543D01*
X136963D01*
Y373620D01*
Y373697D01*
X137040D01*
Y373774D01*
Y373851D01*
Y373928D01*
X137117D01*
Y374005D01*
Y374082D01*
X137194D01*
Y374159D01*
Y374236D01*
X137271D01*
Y374313D01*
Y374390D01*
X137348D01*
Y374467D01*
X137425D01*
Y374545D01*
Y374622D01*
X137502D01*
Y374699D01*
Y374776D01*
X137579D01*
Y374853D01*
X137656D01*
Y374930D01*
Y375007D01*
X137733D01*
Y375084D01*
X137811D01*
Y375161D01*
Y375238D01*
X137888D01*
Y375315D01*
X137965D01*
Y375392D01*
X138042D01*
Y375469D01*
X138119D01*
Y375546D01*
Y375623D01*
X138196D01*
Y375700D01*
X138273D01*
Y375777D01*
X138350D01*
Y375854D01*
X138427D01*
Y375931D01*
X138504D01*
Y376009D01*
X138581D01*
Y376085D01*
X138658D01*
Y376163D01*
X138735D01*
Y376240D01*
X138889D01*
Y376317D01*
X138966D01*
Y376394D01*
X139043D01*
Y376317D01*
D02*
G37*
G36*
X169942Y376163D02*
X170019D01*
Y376085D01*
X170173D01*
Y376009D01*
Y375931D01*
X170327D01*
Y375854D01*
X170404D01*
Y375777D01*
X170481D01*
Y375700D01*
X170558D01*
Y375623D01*
Y375546D01*
X170635D01*
Y375469D01*
X170712D01*
Y375392D01*
X170790D01*
Y375315D01*
X170867D01*
Y375238D01*
X170944D01*
Y375161D01*
Y375084D01*
X171021D01*
Y375007D01*
X171098D01*
Y374930D01*
X171175D01*
Y374853D01*
Y374776D01*
X171252D01*
Y374699D01*
X171329D01*
Y374622D01*
Y374545D01*
X171406D01*
Y374467D01*
Y374390D01*
X171483D01*
Y374313D01*
Y374236D01*
X171560D01*
Y374159D01*
Y374082D01*
X171637D01*
Y374005D01*
Y373928D01*
X171714D01*
Y373851D01*
Y373774D01*
X171791D01*
Y373697D01*
Y373620D01*
X171868D01*
Y373543D01*
Y373466D01*
Y373389D01*
X171945D01*
Y373312D01*
Y373235D01*
Y373158D01*
X172022D01*
Y373080D01*
Y373003D01*
Y372926D01*
X172099D01*
Y372849D01*
Y372772D01*
Y372695D01*
Y372618D01*
Y372541D01*
X172177D01*
Y372464D01*
Y372387D01*
Y372310D01*
Y372233D01*
X172254D01*
Y372156D01*
Y372079D01*
Y372002D01*
Y371925D01*
Y371848D01*
Y371771D01*
Y371693D01*
Y371616D01*
Y371539D01*
X172330D01*
Y371462D01*
Y371385D01*
Y371308D01*
Y371231D01*
Y371154D01*
Y371077D01*
Y371000D01*
Y370923D01*
Y370846D01*
Y370769D01*
Y370692D01*
Y370615D01*
Y370538D01*
Y370461D01*
X172254D01*
Y370384D01*
Y370306D01*
Y370229D01*
Y370152D01*
Y370075D01*
Y369998D01*
Y369921D01*
X172177D01*
Y369844D01*
Y369767D01*
Y369690D01*
X172099D01*
Y369613D01*
Y369536D01*
X171868D01*
Y369613D01*
X171560D01*
Y369690D01*
X171329D01*
Y369767D01*
X171098D01*
Y369844D01*
X170867D01*
Y369921D01*
X170712D01*
Y369998D01*
X170481D01*
Y370075D01*
X170327D01*
Y370152D01*
X170096D01*
Y370229D01*
X169942D01*
Y370306D01*
X169788D01*
Y370384D01*
X169557D01*
Y370461D01*
X169403D01*
Y370538D01*
X169248D01*
Y370615D01*
X169017D01*
Y370692D01*
X168863D01*
Y370769D01*
X168709D01*
Y370846D01*
X168478D01*
Y370923D01*
X168324D01*
Y371000D01*
X168093D01*
Y371077D01*
X167938D01*
Y371154D01*
X167784D01*
Y371231D01*
X167553D01*
Y371308D01*
X167399D01*
Y371385D01*
X167245D01*
Y371462D01*
X167322D01*
Y371539D01*
Y371616D01*
X167399D01*
Y371693D01*
Y371771D01*
X167476D01*
Y371848D01*
Y371925D01*
X167553D01*
Y372002D01*
X167630D01*
Y372079D01*
Y372156D01*
X167707D01*
Y372233D01*
Y372310D01*
X167784D01*
Y372387D01*
Y372464D01*
X167861D01*
Y372541D01*
Y372618D01*
X167938D01*
Y372695D01*
X168016D01*
Y372772D01*
Y372849D01*
X168093D01*
Y372926D01*
Y373003D01*
X168170D01*
Y373080D01*
Y373158D01*
X168247D01*
Y373235D01*
Y373312D01*
X168324D01*
Y373389D01*
Y373466D01*
X168401D01*
Y373543D01*
X168478D01*
Y373620D01*
Y373697D01*
X168555D01*
Y373774D01*
Y373851D01*
X168632D01*
Y373928D01*
Y374005D01*
X168709D01*
Y374082D01*
Y374159D01*
X168786D01*
Y374236D01*
Y374313D01*
X168863D01*
Y374390D01*
X168940D01*
Y374467D01*
Y374545D01*
X169017D01*
Y374622D01*
Y374699D01*
X169094D01*
Y374776D01*
Y374853D01*
X169171D01*
Y374930D01*
Y375007D01*
X169248D01*
Y375084D01*
X169325D01*
Y375161D01*
Y375238D01*
X169403D01*
Y375315D01*
Y375392D01*
X169480D01*
Y375469D01*
Y375546D01*
X169557D01*
Y375623D01*
Y375700D01*
X169634D01*
Y375777D01*
Y375854D01*
X169711D01*
Y375931D01*
X169788D01*
Y376009D01*
Y376085D01*
X169865D01*
Y376163D01*
Y376240D01*
X169942D01*
Y376163D01*
D02*
G37*
D24*
X130692Y189599D02*
D03*
X142900Y252600D02*
D03*
D47*
X161000Y120000D02*
D03*
X150000Y191500D02*
D03*
X171500D02*
D03*
X161000Y132000D02*
D03*
D48*
X171000Y120000D02*
D03*
X140000Y191500D02*
D03*
X161500D02*
D03*
X171000Y132000D02*
D03*
X97000Y375000D02*
D03*
D49*
X161500Y25500D02*
D03*
Y61500D02*
D03*
D50*
X151500Y15500D02*
D03*
X171500D02*
D03*
X151500Y35500D02*
D03*
X171500D02*
D03*
X151500Y51500D02*
D03*
X171500D02*
D03*
X151500Y71500D02*
D03*
X171500D02*
D03*
D51*
X109252Y244094D02*
D03*
X117126D02*
D03*
X125000D02*
D03*
X132874D02*
D03*
X140748D02*
D03*
Y236221D02*
D03*
X132874D02*
D03*
X125000D02*
D03*
X117126D02*
D03*
X109252D02*
D03*
X36417D02*
D03*
X44291D02*
D03*
X52165D02*
D03*
X60039D02*
D03*
X67913D02*
D03*
Y244094D02*
D03*
X60039D02*
D03*
X52165D02*
D03*
X44291D02*
D03*
X36417D02*
D03*
D52*
X88583Y240158D02*
D03*
D53*
X41508Y386000D02*
D03*
X67492D02*
D03*
D54*
X7500Y71000D02*
D03*
X17500D02*
D03*
Y61000D02*
D03*
X7500D02*
D03*
Y81000D02*
D03*
X17500D02*
D03*
Y111000D02*
D03*
X7500D02*
D03*
X17500Y101000D02*
D03*
X7500D02*
D03*
X17500Y91000D02*
D03*
X7500D02*
D03*
Y121000D02*
D03*
X17500D02*
D03*
X7500Y131000D02*
D03*
X17500D02*
D03*
X7500Y141000D02*
D03*
D55*
X17500D02*
D03*
D56*
X156000Y222500D02*
D03*
X146000D02*
D03*
X156000Y212500D02*
D03*
X146000D02*
D03*
X136000Y222500D02*
D03*
Y212500D02*
D03*
X126000Y222500D02*
D03*
Y212500D02*
D03*
X116000Y222500D02*
D03*
X63000Y266000D02*
D03*
X53000D02*
D03*
X63000Y256000D02*
D03*
X53000D02*
D03*
X43000Y266000D02*
D03*
Y256000D02*
D03*
X33000Y266000D02*
D03*
Y256000D02*
D03*
X23000Y266000D02*
D03*
X62500Y223000D02*
D03*
X52500D02*
D03*
X62500Y213000D02*
D03*
X52500D02*
D03*
X42500Y223000D02*
D03*
Y213000D02*
D03*
X32500Y223000D02*
D03*
Y213000D02*
D03*
X22500Y223000D02*
D03*
D57*
X116000Y212500D02*
D03*
X23000Y256000D02*
D03*
X22500Y213000D02*
D03*
D58*
X97000Y385000D02*
D03*
D59*
X97700Y39900D02*
D03*
X86182Y42656D02*
D03*
X126500Y121700D02*
D03*
X24400Y48700D02*
D03*
X41200Y112400D02*
D03*
X37300Y112600D02*
D03*
X55500Y88000D02*
D03*
X108613Y94413D02*
D03*
X147250Y121950D02*
D03*
X139800Y163000D02*
D03*
X139600Y159600D02*
D03*
X54500Y149600D02*
D03*
X54800Y145500D02*
D03*
X95300Y66500D02*
D03*
X85900Y66800D02*
D03*
X124600Y88500D02*
D03*
X118275Y96100D02*
D03*
X82400Y108400D02*
D03*
X86900D02*
D03*
X73200D02*
D03*
X55500Y108000D02*
D03*
X37545Y135595D02*
D03*
X29600Y142400D02*
D03*
X55500Y167200D02*
D03*
X34500Y166000D02*
D03*
X60500Y180300D02*
D03*
X102200Y209000D02*
D03*
X101800Y181200D02*
D03*
X110600Y180900D02*
D03*
X94200Y180600D02*
D03*
X72100Y178700D02*
D03*
X75800Y180700D02*
D03*
X49000Y200900D02*
D03*
X5000Y149500D02*
D03*
X55795Y157295D02*
D03*
X77796Y194904D02*
D03*
X80200Y192500D02*
D03*
X65300Y180500D02*
D03*
X66600Y193500D02*
D03*
X57687Y204413D02*
D03*
X60092Y202008D02*
D03*
X62496Y199604D02*
D03*
X64900Y197200D02*
D03*
X34224Y124588D02*
D03*
X41624Y130887D02*
D03*
X55102Y125787D02*
D03*
Y129724D02*
D03*
Y133661D02*
D03*
X55100Y137600D02*
D03*
D60*
X115900Y44100D02*
D03*
X131900Y60200D02*
D03*
X108400Y22600D02*
D03*
X83125Y21346D02*
D03*
X126500Y52300D02*
D03*
X122700Y78300D02*
D03*
Y68500D02*
D03*
X55500Y76800D02*
D03*
Y66100D02*
D03*
X105600Y50400D02*
D03*
Y44100D02*
D03*
X92100Y33500D02*
D03*
X98400Y33400D02*
D03*
X73300Y14300D02*
D03*
X79500Y33600D02*
D03*
X72100Y41100D02*
D03*
X60200Y34700D02*
D03*
X60500Y50500D02*
D03*
X119400Y174500D02*
D03*
X126100Y175500D02*
D03*
X87900Y86400D02*
D03*
X141500Y257200D02*
D03*
X121000Y178700D02*
D03*
D61*
X163200Y342300D02*
D03*
X155225D02*
D03*
X147250D02*
D03*
X139275D02*
D03*
X131300D02*
D03*
X154400Y111400D02*
D03*
X154900Y104100D02*
D03*
X156000Y89000D02*
D03*
X141000Y115000D02*
D03*
X171000Y92000D02*
D03*
D62*
X139800Y156100D02*
D03*
M02*
