G04*
G04 #@! TF.GenerationSoftware,Altium Limited,Altium Designer,20.1.8 (145)*
G04*
G04 Layer_Color=65535*
%FSLAX25Y25*%
%MOIN*%
G70*
G04*
G04 #@! TF.SameCoordinates,AD2E53F2-275F-43D4-B2A7-20F968E01B46*
G04*
G04*
G04 #@! TF.FilePolarity,Positive*
G04*
G01*
G75*
%ADD10C,0.00394*%
%ADD11C,0.01000*%
%ADD12C,0.00984*%
%ADD13C,0.02362*%
%ADD14C,0.00394*%
%ADD15C,0.00787*%
%ADD16C,0.00600*%
%ADD17C,0.00700*%
%ADD18R,0.17717X0.03150*%
G36*
X156626Y183811D02*
X152689Y179874D01*
Y183811D01*
X156626D01*
D02*
G37*
G36*
X171983Y335141D02*
X172048Y335132D01*
X172113Y335114D01*
X172187Y335086D01*
X172251Y335049D01*
X172316Y334994D01*
X172325Y334984D01*
X172344Y334966D01*
X172371Y334938D01*
X172399Y334892D01*
X172427Y334836D01*
X172455Y334771D01*
X172473Y334688D01*
X172483Y334605D01*
Y334596D01*
Y334568D01*
X172473Y334522D01*
X172464Y334466D01*
X172445Y334401D01*
X172408Y334337D01*
X172371Y334272D01*
X172316Y334207D01*
X172307Y334198D01*
X172288Y334189D01*
X172251Y334161D01*
X172205Y334133D01*
X172140Y334105D01*
X172066Y334087D01*
X171983Y334068D01*
X171890Y334059D01*
X171872D01*
X171807Y334068D01*
X171724Y334078D01*
X171641Y334096D01*
X171622Y334105D01*
X171576Y334124D01*
X171520Y334161D01*
X171456Y334207D01*
X171447Y334216D01*
X171409Y334254D01*
X171372Y334309D01*
X171335Y334383D01*
Y334392D01*
X171326Y334401D01*
X171317Y334448D01*
X171308Y334522D01*
X171299Y334605D01*
Y334614D01*
Y334624D01*
X171308Y334679D01*
X171317Y334753D01*
X171335Y334827D01*
Y334836D01*
X171345Y334845D01*
X171372Y334882D01*
X171409Y334938D01*
X171456Y334994D01*
X171474Y335003D01*
X171511Y335040D01*
X171567Y335068D01*
X171641Y335104D01*
X171650D01*
X171659Y335114D01*
X171715Y335132D01*
X171789Y335141D01*
X171890Y335151D01*
X171937D01*
X171983Y335141D01*
D02*
G37*
G36*
X145084Y333643D02*
X145167Y333634D01*
X145260Y333615D01*
X145454Y333560D01*
X145463D01*
X145500Y333541D01*
X145546Y333523D01*
X145602Y333495D01*
X145676Y333458D01*
X145750Y333412D01*
X145824Y333347D01*
X145889Y333282D01*
X145898Y333273D01*
X145916Y333245D01*
X145954Y333208D01*
X145991Y333143D01*
X146037Y333079D01*
X146092Y332986D01*
X146139Y332894D01*
X146176Y332783D01*
X146185Y332773D01*
X146194Y332727D01*
X146212Y332663D01*
X146231Y332579D01*
X146249Y332468D01*
X146259Y332339D01*
X146277Y332200D01*
Y332043D01*
Y329582D01*
X145250D01*
Y332024D01*
Y332033D01*
Y332061D01*
Y332107D01*
X145241Y332163D01*
X145232Y332293D01*
X145195Y332413D01*
Y332422D01*
X145186Y332440D01*
X145176Y332468D01*
X145158Y332505D01*
X145103Y332579D01*
X145038Y332653D01*
X145019Y332672D01*
X144973Y332709D01*
X144899Y332746D01*
X144797Y332783D01*
X144788D01*
X144770Y332792D01*
X144742D01*
X144705Y332801D01*
X144603Y332810D01*
X144483Y332820D01*
X144437D01*
X144390Y332810D01*
X144335D01*
X144187Y332773D01*
X144113Y332746D01*
X144039Y332709D01*
X144029D01*
X144011Y332690D01*
X143974Y332663D01*
X143928Y332635D01*
X143835Y332542D01*
X143734Y332422D01*
Y329582D01*
X142707D01*
Y333578D01*
X143641D01*
X143696Y333023D01*
X143706Y333032D01*
X143734Y333069D01*
X143780Y333125D01*
X143844Y333199D01*
X143919Y333273D01*
X144011Y333347D01*
X144113Y333421D01*
X144224Y333486D01*
X144242Y333495D01*
X144279Y333513D01*
X144344Y333541D01*
X144427Y333569D01*
X144520Y333597D01*
X144640Y333625D01*
X144760Y333643D01*
X144899Y333652D01*
X145010D01*
X145084Y333643D01*
D02*
G37*
G36*
X126797Y332579D02*
X128674Y329582D01*
X127435D01*
X126103Y331793D01*
X125539Y331164D01*
Y329582D01*
X124494D01*
Y334966D01*
X125539D01*
Y332496D01*
X126029Y333153D01*
X127333Y334966D01*
X128610D01*
X126797Y332579D01*
D02*
G37*
G36*
X162798Y333643D02*
X162899D01*
X163020Y333625D01*
X163140Y333606D01*
X163269Y333588D01*
X163399Y333551D01*
X163417D01*
X163454Y333532D01*
X163519Y333513D01*
X163593Y333486D01*
X163686Y333449D01*
X163778Y333402D01*
X163871Y333347D01*
X163963Y333282D01*
X163972Y333273D01*
X164000Y333255D01*
X164047Y333218D01*
X164093Y333171D01*
X164148Y333106D01*
X164213Y333042D01*
X164269Y332959D01*
X164315Y332875D01*
X164324Y332866D01*
X164333Y332838D01*
X164352Y332792D01*
X164380Y332727D01*
X164398Y332653D01*
X164417Y332561D01*
X164426Y332468D01*
X164435Y332366D01*
X163408D01*
Y332376D01*
Y332403D01*
X163399Y332450D01*
X163381Y332505D01*
X163362Y332561D01*
X163325Y332626D01*
X163279Y332690D01*
X163214Y332755D01*
X163205Y332764D01*
X163177Y332783D01*
X163140Y332801D01*
X163075Y332838D01*
X162992Y332866D01*
X162899Y332885D01*
X162779Y332903D01*
X162650Y332912D01*
X162594D01*
X162530Y332903D01*
X162446Y332894D01*
X162270Y332857D01*
X162178Y332829D01*
X162104Y332783D01*
X162095Y332773D01*
X162076Y332764D01*
X162048Y332727D01*
X162012Y332690D01*
X161947Y332589D01*
X161928Y332533D01*
X161919Y332459D01*
Y332440D01*
X161928Y332403D01*
X161937Y332357D01*
X161956Y332293D01*
X161965Y332283D01*
X161984Y332246D01*
X162030Y332200D01*
X162085Y332154D01*
X162095D01*
X162104Y332144D01*
X162160Y332117D01*
X162233Y332080D01*
X162345Y332043D01*
X162354D01*
X162372Y332033D01*
X162409Y332024D01*
X162455Y332015D01*
X162520Y332006D01*
X162594Y331987D01*
X162668Y331978D01*
X162761Y331960D01*
X162779D01*
X162826Y331950D01*
X162890Y331941D01*
X162983Y331923D01*
X163084Y331895D01*
X163196Y331876D01*
X163436Y331811D01*
X163454D01*
X163491Y331793D01*
X163547Y331774D01*
X163621Y331747D01*
X163704Y331710D01*
X163797Y331673D01*
X163972Y331571D01*
X163982Y331562D01*
X164009Y331543D01*
X164047Y331516D01*
X164102Y331469D01*
X164157Y331414D01*
X164213Y331358D01*
X164324Y331210D01*
X164333Y331201D01*
X164342Y331173D01*
X164361Y331127D01*
X164389Y331071D01*
X164417Y330997D01*
X164435Y330914D01*
X164444Y330822D01*
X164453Y330720D01*
Y330711D01*
Y330674D01*
X164444Y330627D01*
X164435Y330563D01*
X164426Y330480D01*
X164398Y330396D01*
X164370Y330313D01*
X164324Y330230D01*
X164315Y330221D01*
X164296Y330193D01*
X164269Y330147D01*
X164232Y330100D01*
X164176Y330035D01*
X164120Y329971D01*
X164047Y329906D01*
X163963Y329841D01*
X163954Y329832D01*
X163926Y329814D01*
X163871Y329786D01*
X163806Y329749D01*
X163723Y329712D01*
X163630Y329665D01*
X163519Y329628D01*
X163399Y329591D01*
X163381D01*
X163344Y329582D01*
X163269Y329564D01*
X163177Y329555D01*
X163066Y329536D01*
X162946Y329518D01*
X162798Y329508D01*
X162576D01*
X162493Y329518D01*
X162381Y329527D01*
X162261Y329536D01*
X162122Y329555D01*
X161984Y329582D01*
X161854Y329619D01*
X161836Y329628D01*
X161799Y329638D01*
X161734Y329665D01*
X161651Y329702D01*
X161558Y329749D01*
X161466Y329795D01*
X161364Y329860D01*
X161272Y329925D01*
X161262Y329934D01*
X161234Y329961D01*
X161188Y329998D01*
X161142Y330054D01*
X161086Y330119D01*
X161022Y330193D01*
X160966Y330276D01*
X160920Y330359D01*
X160911Y330368D01*
X160901Y330405D01*
X160883Y330452D01*
X160864Y330507D01*
X160837Y330581D01*
X160818Y330664D01*
X160809Y330757D01*
X160800Y330850D01*
X161780D01*
Y330840D01*
Y330822D01*
X161790Y330794D01*
X161799Y330748D01*
X161817Y330655D01*
X161864Y330563D01*
X161882Y330544D01*
X161919Y330498D01*
X161984Y330443D01*
X162067Y330378D01*
X162076D01*
X162085Y330368D01*
X162113Y330350D01*
X162150Y330341D01*
X162243Y330304D01*
X162354Y330267D01*
X162381D01*
X162409Y330258D01*
X162455D01*
X162557Y330248D01*
X162678Y330239D01*
X162742D01*
X162807Y330248D01*
X162890Y330258D01*
X163075Y330294D01*
X163168Y330322D01*
X163251Y330359D01*
X163260Y330368D01*
X163279Y330378D01*
X163316Y330405D01*
X163353Y330443D01*
X163390Y330489D01*
X163427Y330544D01*
X163445Y330609D01*
X163454Y330674D01*
Y330692D01*
X163445Y330729D01*
X163436Y330775D01*
X163408Y330831D01*
X163399Y330840D01*
X163381Y330877D01*
X163334Y330924D01*
X163260Y330970D01*
X163251D01*
X163242Y330979D01*
X163214Y330997D01*
X163186Y331007D01*
X163084Y331044D01*
X162964Y331081D01*
X162955D01*
X162936Y331090D01*
X162890Y331099D01*
X162844Y331118D01*
X162779Y331127D01*
X162696Y331146D01*
X162613Y331164D01*
X162511Y331183D01*
X162493D01*
X162455Y331192D01*
X162381Y331210D01*
X162298Y331229D01*
X162197Y331257D01*
X162085Y331284D01*
X161864Y331358D01*
X161854Y331367D01*
X161817Y331377D01*
X161762Y331404D01*
X161697Y331432D01*
X161614Y331469D01*
X161530Y331516D01*
X161364Y331617D01*
X161355Y331627D01*
X161327Y331645D01*
X161290Y331673D01*
X161244Y331719D01*
X161142Y331821D01*
X161040Y331960D01*
Y331969D01*
X161022Y331996D01*
X161003Y332033D01*
X160985Y332089D01*
X160966Y332163D01*
X160948Y332237D01*
X160939Y332320D01*
X160929Y332413D01*
Y332422D01*
Y332459D01*
X160939Y332505D01*
X160948Y332570D01*
X160957Y332635D01*
X160985Y332718D01*
X161012Y332801D01*
X161049Y332885D01*
X161059Y332894D01*
X161068Y332922D01*
X161096Y332968D01*
X161142Y333023D01*
X161188Y333088D01*
X161244Y333153D01*
X161318Y333218D01*
X161392Y333282D01*
X161401Y333292D01*
X161429Y333310D01*
X161475Y333347D01*
X161540Y333384D01*
X161623Y333421D01*
X161715Y333467D01*
X161817Y333513D01*
X161928Y333551D01*
X161947Y333560D01*
X161984Y333569D01*
X162048Y333588D01*
X162141Y333606D01*
X162243Y333625D01*
X162372Y333634D01*
X162502Y333652D01*
X162724D01*
X162798Y333643D01*
D02*
G37*
G36*
X172408Y330415D02*
X173491D01*
Y329582D01*
X170226D01*
Y330415D01*
X171372D01*
Y332736D01*
X170226D01*
Y333578D01*
X172408D01*
Y330415D01*
D02*
G37*
G36*
X167312Y333643D02*
X167413Y333634D01*
X167534Y333615D01*
X167765Y333560D01*
X167783D01*
X167821Y333541D01*
X167876Y333523D01*
X167950Y333495D01*
X168033Y333458D01*
X168126Y333412D01*
X168311Y333301D01*
X168320Y333292D01*
X168348Y333273D01*
X168394Y333227D01*
X168440Y333180D01*
X168505Y333116D01*
X168561Y333042D01*
X168616Y332949D01*
X168672Y332857D01*
X168681Y332847D01*
X168690Y332810D01*
X168709Y332755D01*
X168736Y332681D01*
X168764Y332598D01*
X168782Y332496D01*
X168792Y332376D01*
X168801Y332256D01*
Y330535D01*
Y330517D01*
Y330480D01*
Y330424D01*
X168810Y330350D01*
Y330258D01*
X168819Y330174D01*
X168829Y330082D01*
X168838Y329998D01*
Y329989D01*
X168847Y329961D01*
X168857Y329925D01*
X168875Y329878D01*
X168912Y329758D01*
X168958Y329638D01*
Y329582D01*
X167913D01*
X167904Y329591D01*
X167894Y329628D01*
X167867Y329684D01*
X167848Y329749D01*
Y329767D01*
X167839Y329814D01*
X167830Y329878D01*
X167811Y329952D01*
X167793Y329934D01*
X167756Y329897D01*
X167691Y329841D01*
X167608Y329777D01*
X167598D01*
X167589Y329767D01*
X167534Y329730D01*
X167460Y329684D01*
X167358Y329638D01*
X167349D01*
X167340Y329628D01*
X167312Y329619D01*
X167275Y329610D01*
X167182Y329573D01*
X167062Y329545D01*
X167053D01*
X167034Y329536D01*
X167007D01*
X166960Y329527D01*
X166849Y329518D01*
X166720Y329508D01*
X166664D01*
X166609Y329518D01*
X166535D01*
X166442Y329527D01*
X166350Y329545D01*
X166146Y329591D01*
X166137D01*
X166109Y329610D01*
X166054Y329628D01*
X165998Y329656D01*
X165859Y329739D01*
X165711Y329841D01*
X165702Y329851D01*
X165684Y329869D01*
X165647Y329906D01*
X165610Y329952D01*
X165554Y330008D01*
X165508Y330072D01*
X165416Y330221D01*
Y330230D01*
X165397Y330258D01*
X165388Y330304D01*
X165369Y330368D01*
X165351Y330433D01*
X165332Y330517D01*
X165323Y330609D01*
X165314Y330701D01*
Y330711D01*
Y330729D01*
Y330766D01*
X165323Y330803D01*
X165332Y330859D01*
X165341Y330914D01*
X165369Y331062D01*
X165425Y331220D01*
X165517Y331377D01*
X165563Y331460D01*
X165628Y331534D01*
X165702Y331608D01*
X165786Y331673D01*
X165795D01*
X165804Y331691D01*
X165832Y331710D01*
X165878Y331728D01*
X165924Y331756D01*
X165989Y331784D01*
X166054Y331811D01*
X166137Y331849D01*
X166229Y331886D01*
X166340Y331913D01*
X166452Y331941D01*
X166581Y331969D01*
X166720Y331996D01*
X166868Y332006D01*
X167034Y332024D01*
X167774D01*
Y332256D01*
Y332265D01*
Y332302D01*
X167765Y332357D01*
X167746Y332422D01*
X167728Y332496D01*
X167691Y332579D01*
X167645Y332653D01*
X167580Y332718D01*
X167571Y332727D01*
X167543Y332746D01*
X167506Y332773D01*
X167441Y332801D01*
X167367Y332829D01*
X167275Y332857D01*
X167164Y332875D01*
X167034Y332885D01*
X166979D01*
X166923Y332875D01*
X166858Y332866D01*
X166785Y332847D01*
X166710Y332829D01*
X166637Y332792D01*
X166572Y332746D01*
X166562Y332736D01*
X166553Y332718D01*
X166525Y332690D01*
X166507Y332653D01*
X166479Y332598D01*
X166452Y332542D01*
X166442Y332468D01*
X166433Y332385D01*
X165406D01*
Y332394D01*
Y332431D01*
X165416Y332477D01*
X165425Y332542D01*
X165434Y332616D01*
X165453Y332699D01*
X165480Y332792D01*
X165517Y332875D01*
X165526Y332885D01*
X165536Y332912D01*
X165563Y332959D01*
X165601Y333014D01*
X165647Y333079D01*
X165702Y333143D01*
X165767Y333208D01*
X165841Y333273D01*
X165850Y333282D01*
X165878Y333301D01*
X165924Y333338D01*
X165989Y333375D01*
X166072Y333421D01*
X166165Y333467D01*
X166267Y333513D01*
X166377Y333551D01*
X166396Y333560D01*
X166433Y333569D01*
X166498Y333588D01*
X166581Y333606D01*
X166692Y333625D01*
X166812Y333634D01*
X166942Y333652D01*
X167219D01*
X167312Y333643D01*
D02*
G37*
G36*
X153316Y334957D02*
X153446Y334947D01*
X153594Y334920D01*
X153761Y334892D01*
X153927Y334845D01*
X154094Y334781D01*
X154103D01*
X154112Y334771D01*
X154167Y334744D01*
X154251Y334707D01*
X154352Y334651D01*
X154464Y334577D01*
X154593Y334485D01*
X154713Y334383D01*
X154833Y334263D01*
X154852Y334244D01*
X154889Y334207D01*
X154945Y334133D01*
X155009Y334041D01*
X155093Y333930D01*
X155166Y333800D01*
X155250Y333652D01*
X155315Y333486D01*
Y333476D01*
X155324Y333467D01*
X155333Y333439D01*
X155342Y333402D01*
X155370Y333310D01*
X155398Y333190D01*
X155426Y333042D01*
X155453Y332875D01*
X155472Y332690D01*
X155481Y332487D01*
Y332043D01*
Y332033D01*
Y332015D01*
Y331987D01*
Y331950D01*
X155472Y331849D01*
X155463Y331710D01*
X155444Y331562D01*
X155407Y331395D01*
X155370Y331220D01*
X155315Y331044D01*
Y331034D01*
X155305Y331025D01*
X155287Y330970D01*
X155250Y330887D01*
X155194Y330775D01*
X155130Y330655D01*
X155046Y330526D01*
X154954Y330396D01*
X154843Y330267D01*
X154833Y330248D01*
X154787Y330211D01*
X154722Y330156D01*
X154639Y330082D01*
X154528Y329998D01*
X154408Y329915D01*
X154269Y329832D01*
X154112Y329758D01*
X154094Y329749D01*
X154038Y329730D01*
X153955Y329702D01*
X153834Y329675D01*
X153696Y329638D01*
X153539Y329610D01*
X153363Y329591D01*
X153178Y329582D01*
X151725D01*
Y334966D01*
X153215D01*
X153316Y334957D01*
D02*
G37*
G36*
X140061Y333643D02*
X140163Y333634D01*
X140283Y333615D01*
X140515Y333560D01*
X140533D01*
X140570Y333541D01*
X140626Y333523D01*
X140700Y333495D01*
X140783Y333458D01*
X140875Y333412D01*
X141060Y333301D01*
X141069Y333292D01*
X141097Y333273D01*
X141144Y333227D01*
X141190Y333180D01*
X141254Y333116D01*
X141310Y333042D01*
X141366Y332949D01*
X141421Y332857D01*
X141430Y332847D01*
X141439Y332810D01*
X141458Y332755D01*
X141486Y332681D01*
X141514Y332598D01*
X141532Y332496D01*
X141541Y332376D01*
X141551Y332256D01*
Y330535D01*
Y330517D01*
Y330480D01*
Y330424D01*
X141560Y330350D01*
Y330258D01*
X141569Y330174D01*
X141578Y330082D01*
X141587Y329998D01*
Y329989D01*
X141597Y329961D01*
X141606Y329925D01*
X141624Y329878D01*
X141662Y329758D01*
X141708Y329638D01*
Y329582D01*
X140663D01*
X140653Y329591D01*
X140644Y329628D01*
X140616Y329684D01*
X140598Y329749D01*
Y329767D01*
X140588Y329814D01*
X140579Y329878D01*
X140561Y329952D01*
X140542Y329934D01*
X140505Y329897D01*
X140440Y329841D01*
X140357Y329777D01*
X140348D01*
X140339Y329767D01*
X140283Y329730D01*
X140209Y329684D01*
X140108Y329638D01*
X140098D01*
X140089Y329628D01*
X140061Y329619D01*
X140024Y329610D01*
X139932Y329573D01*
X139812Y329545D01*
X139802D01*
X139784Y329536D01*
X139756D01*
X139710Y329527D01*
X139599Y329518D01*
X139469Y329508D01*
X139414D01*
X139358Y329518D01*
X139284D01*
X139192Y329527D01*
X139099Y329545D01*
X138896Y329591D01*
X138886D01*
X138859Y329610D01*
X138803Y329628D01*
X138748Y329656D01*
X138609Y329739D01*
X138461Y329841D01*
X138452Y329851D01*
X138433Y329869D01*
X138396Y329906D01*
X138359Y329952D01*
X138304Y330008D01*
X138258Y330072D01*
X138165Y330220D01*
Y330230D01*
X138146Y330258D01*
X138137Y330304D01*
X138119Y330368D01*
X138100Y330433D01*
X138082Y330516D01*
X138073Y330609D01*
X138063Y330701D01*
Y330711D01*
Y330729D01*
Y330766D01*
X138073Y330803D01*
X138082Y330859D01*
X138091Y330914D01*
X138119Y331062D01*
X138174Y331220D01*
X138267Y331377D01*
X138313Y331460D01*
X138378Y331534D01*
X138452Y331608D01*
X138535Y331673D01*
X138544D01*
X138554Y331691D01*
X138581Y331710D01*
X138628Y331728D01*
X138674Y331756D01*
X138739Y331784D01*
X138803Y331811D01*
X138886Y331849D01*
X138979Y331885D01*
X139090Y331913D01*
X139201Y331941D01*
X139330Y331969D01*
X139469Y331996D01*
X139617Y332006D01*
X139784Y332024D01*
X140524Y332024D01*
Y332256D01*
Y332265D01*
Y332302D01*
X140515Y332357D01*
X140496Y332422D01*
X140478Y332496D01*
X140440Y332579D01*
X140394Y332653D01*
X140330Y332718D01*
X140320Y332727D01*
X140293Y332746D01*
X140255Y332773D01*
X140191Y332801D01*
X140117Y332829D01*
X140024Y332857D01*
X139913Y332875D01*
X139784Y332885D01*
X139728D01*
X139673Y332875D01*
X139608Y332866D01*
X139534Y332847D01*
X139460Y332829D01*
X139386Y332792D01*
X139321Y332746D01*
X139312Y332736D01*
X139303Y332718D01*
X139275Y332690D01*
X139257Y332653D01*
X139229Y332598D01*
X139201Y332542D01*
X139192Y332468D01*
X139182Y332385D01*
X138156D01*
Y332394D01*
Y332431D01*
X138165Y332477D01*
X138174Y332542D01*
X138183Y332616D01*
X138202Y332699D01*
X138230Y332792D01*
X138267Y332875D01*
X138276Y332885D01*
X138285Y332912D01*
X138313Y332958D01*
X138350Y333014D01*
X138396Y333079D01*
X138452Y333143D01*
X138516Y333208D01*
X138591Y333273D01*
X138600Y333282D01*
X138628Y333301D01*
X138674Y333338D01*
X138739Y333375D01*
X138822Y333421D01*
X138914Y333467D01*
X139016Y333513D01*
X139127Y333551D01*
X139146Y333560D01*
X139182Y333569D01*
X139247Y333587D01*
X139330Y333606D01*
X139442Y333624D01*
X139562Y333634D01*
X139691Y333652D01*
X139969D01*
X140061Y333643D01*
D02*
G37*
G36*
X158311D02*
X158413Y333634D01*
X158534Y333615D01*
X158663Y333588D01*
X158792Y333551D01*
X158922Y333504D01*
X158940Y333495D01*
X158977Y333476D01*
X159042Y333449D01*
X159125Y333402D01*
X159209Y333347D01*
X159310Y333282D01*
X159403Y333199D01*
X159495Y333106D01*
X159505Y333097D01*
X159532Y333060D01*
X159579Y333005D01*
X159634Y332931D01*
X159690Y332838D01*
X159745Y332736D01*
X159810Y332616D01*
X159856Y332487D01*
X159865Y332468D01*
X159875Y332422D01*
X159893Y332348D01*
X159921Y332256D01*
X159949Y332135D01*
X159967Y331996D01*
X159976Y331849D01*
X159986Y331682D01*
Y331247D01*
X157266D01*
Y331238D01*
X157275Y331210D01*
X157285Y331173D01*
X157294Y331127D01*
X157331Y330997D01*
X157387Y330868D01*
Y330859D01*
X157405Y330840D01*
X157423Y330813D01*
X157451Y330766D01*
X157525Y330674D01*
X157618Y330581D01*
X157627Y330572D01*
X157645Y330563D01*
X157673Y330544D01*
X157710Y330517D01*
X157812Y330452D01*
X157932Y330396D01*
X157941D01*
X157969Y330387D01*
X158006Y330378D01*
X158053Y330368D01*
X158117Y330350D01*
X158182Y330341D01*
X158339Y330331D01*
X158432D01*
X158524Y330341D01*
X158635Y330359D01*
X158644D01*
X158663Y330368D01*
X158691D01*
X158728Y330378D01*
X158820Y330405D01*
X158922Y330443D01*
X158931D01*
X158950Y330452D01*
X158968Y330461D01*
X159005Y330480D01*
X159089Y330526D01*
X159181Y330581D01*
X159190D01*
X159200Y330600D01*
X159255Y330646D01*
X159320Y330711D01*
X159385Y330785D01*
X159903Y330230D01*
Y330221D01*
X159884Y330202D01*
X159865Y330184D01*
X159828Y330147D01*
X159755Y330054D01*
X159643Y329961D01*
X159634Y329952D01*
X159616Y329943D01*
X159588Y329915D01*
X159542Y329888D01*
X159486Y329851D01*
X159431Y329814D01*
X159283Y329730D01*
X159274D01*
X159246Y329712D01*
X159209Y329693D01*
X159153Y329675D01*
X159079Y329647D01*
X159005Y329619D01*
X158820Y329573D01*
X158811D01*
X158774Y329564D01*
X158728Y329555D01*
X158663Y329545D01*
X158580Y329527D01*
X158487Y329518D01*
X158274Y329508D01*
X158201D01*
X158108Y329518D01*
X157997Y329527D01*
X157868Y329545D01*
X157729Y329573D01*
X157581Y329610D01*
X157433Y329656D01*
X157414Y329665D01*
X157368Y329684D01*
X157303Y329721D01*
X157211Y329767D01*
X157109Y329823D01*
X156998Y329888D01*
X156887Y329971D01*
X156785Y330063D01*
X156776Y330072D01*
X156739Y330110D01*
X156693Y330165D01*
X156637Y330239D01*
X156563Y330331D01*
X156499Y330443D01*
X156434Y330554D01*
X156369Y330683D01*
X156360Y330701D01*
X156351Y330748D01*
X156323Y330813D01*
X156295Y330914D01*
X156267Y331025D01*
X156249Y331155D01*
X156230Y331294D01*
X156221Y331441D01*
Y331590D01*
Y331599D01*
Y331608D01*
Y331663D01*
X156230Y331756D01*
X156239Y331867D01*
X156258Y331996D01*
X156277Y332135D01*
X156314Y332274D01*
X156360Y332422D01*
X156369Y332440D01*
X156387Y332487D01*
X156424Y332561D01*
X156471Y332644D01*
X156526Y332746D01*
X156591Y332857D01*
X156674Y332968D01*
X156767Y333069D01*
X156776Y333079D01*
X156813Y333116D01*
X156869Y333162D01*
X156942Y333227D01*
X157026Y333292D01*
X157137Y333366D01*
X157248Y333430D01*
X157377Y333495D01*
X157396Y333504D01*
X157442Y333523D01*
X157516Y333541D01*
X157608Y333578D01*
X157729Y333606D01*
X157858Y333625D01*
X158006Y333643D01*
X158154Y333652D01*
X158228D01*
X158311Y333643D01*
D02*
G37*
G36*
X135510Y333578D02*
X136999D01*
Y332820D01*
X135510D01*
Y331099D01*
Y331090D01*
Y331062D01*
Y331025D01*
X135520Y330979D01*
X135529Y330859D01*
X135556Y330738D01*
Y330729D01*
X135566Y330711D01*
X135593Y330655D01*
X135640Y330572D01*
X135705Y330498D01*
X135723Y330489D01*
X135769Y330452D01*
X135834Y330415D01*
X135926Y330378D01*
X135936D01*
X135954Y330368D01*
X135973D01*
X136010Y330359D01*
X136102Y330350D01*
X136223Y330341D01*
X136371D01*
X136454Y330350D01*
X136472D01*
X136537Y330359D01*
X136611Y330368D01*
X136694Y330378D01*
X136713D01*
X136768Y330387D01*
X136833Y330405D01*
X136907Y330415D01*
X136925D01*
X136962Y330424D01*
X137018Y330443D01*
X137074Y330452D01*
X137175Y329749D01*
X137157Y329739D01*
X137110Y329712D01*
X137027Y329675D01*
X136925Y329638D01*
X136916D01*
X136898Y329628D01*
X136870Y329619D01*
X136833Y329610D01*
X136731Y329591D01*
X136611Y329573D01*
X136583D01*
X136556Y329564D01*
X136509Y329554D01*
X136407Y329545D01*
X136278Y329527D01*
X136250D01*
X136213Y329518D01*
X136167D01*
X136056Y329508D01*
X135880D01*
X135816Y329518D01*
X135732D01*
X135640Y329527D01*
X135538Y329545D01*
X135335Y329591D01*
X135325D01*
X135288Y329610D01*
X135242Y329628D01*
X135177Y329656D01*
X135029Y329739D01*
X134872Y329851D01*
X134863Y329860D01*
X134844Y329887D01*
X134807Y329924D01*
X134770Y329980D01*
X134724Y330045D01*
X134678Y330128D01*
X134632Y330220D01*
X134585Y330322D01*
Y330331D01*
X134567Y330378D01*
X134557Y330433D01*
X134539Y330516D01*
X134520Y330609D01*
X134502Y330729D01*
X134493Y330859D01*
X134484Y330997D01*
Y332820D01*
X133568D01*
Y333578D01*
X134484D01*
Y334559D01*
X135510D01*
Y333578D01*
D02*
G37*
G36*
X131061Y333643D02*
X131163Y333634D01*
X131283Y333615D01*
X131412Y333587D01*
X131542Y333551D01*
X131672Y333504D01*
X131690Y333495D01*
X131727Y333476D01*
X131792Y333449D01*
X131875Y333402D01*
X131958Y333347D01*
X132060Y333282D01*
X132152Y333199D01*
X132245Y333106D01*
X132254Y333097D01*
X132282Y333060D01*
X132328Y333005D01*
X132384Y332931D01*
X132439Y332838D01*
X132495Y332736D01*
X132560Y332616D01*
X132606Y332487D01*
X132615Y332468D01*
X132624Y332422D01*
X132643Y332348D01*
X132670Y332256D01*
X132698Y332135D01*
X132717Y331996D01*
X132726Y331849D01*
X132735Y331682D01*
Y331247D01*
X130016D01*
Y331238D01*
X130025Y331210D01*
X130034Y331173D01*
X130043Y331127D01*
X130080Y330997D01*
X130136Y330868D01*
Y330859D01*
X130155Y330840D01*
X130173Y330812D01*
X130201Y330766D01*
X130275Y330674D01*
X130367Y330581D01*
X130377Y330572D01*
X130395Y330563D01*
X130423Y330544D01*
X130460Y330516D01*
X130561Y330452D01*
X130682Y330396D01*
X130691D01*
X130719Y330387D01*
X130756Y330378D01*
X130802Y330368D01*
X130867Y330350D01*
X130931Y330341D01*
X131089Y330331D01*
X131181D01*
X131274Y330341D01*
X131385Y330359D01*
X131394D01*
X131412Y330368D01*
X131440D01*
X131477Y330378D01*
X131570Y330405D01*
X131672Y330443D01*
X131681D01*
X131699Y330452D01*
X131718Y330461D01*
X131755Y330479D01*
X131838Y330526D01*
X131930Y330581D01*
X131940D01*
X131949Y330600D01*
X132004Y330646D01*
X132069Y330711D01*
X132134Y330785D01*
X132652Y330230D01*
Y330220D01*
X132633Y330202D01*
X132615Y330183D01*
X132578Y330147D01*
X132504Y330054D01*
X132393Y329961D01*
X132384Y329952D01*
X132365Y329943D01*
X132337Y329915D01*
X132291Y329887D01*
X132236Y329851D01*
X132180Y329814D01*
X132032Y329730D01*
X132023D01*
X131995Y329712D01*
X131958Y329693D01*
X131903Y329675D01*
X131829Y329647D01*
X131755Y329619D01*
X131570Y329573D01*
X131561D01*
X131524Y329564D01*
X131477Y329554D01*
X131412Y329545D01*
X131329Y329527D01*
X131237Y329518D01*
X131024Y329508D01*
X130950D01*
X130858Y329518D01*
X130746Y329527D01*
X130617Y329545D01*
X130478Y329573D01*
X130330Y329610D01*
X130182Y329656D01*
X130164Y329665D01*
X130117Y329684D01*
X130053Y329721D01*
X129960Y329767D01*
X129859Y329823D01*
X129747Y329887D01*
X129637Y329971D01*
X129535Y330063D01*
X129525Y330072D01*
X129489Y330110D01*
X129442Y330165D01*
X129387Y330239D01*
X129313Y330331D01*
X129248Y330443D01*
X129183Y330554D01*
X129119Y330683D01*
X129109Y330701D01*
X129100Y330748D01*
X129072Y330812D01*
X129044Y330914D01*
X129017Y331025D01*
X128998Y331155D01*
X128980Y331293D01*
X128971Y331441D01*
Y331589D01*
Y331599D01*
Y331608D01*
Y331663D01*
X128980Y331756D01*
X128989Y331867D01*
X129007Y331996D01*
X129026Y332135D01*
X129063Y332274D01*
X129109Y332422D01*
X129119Y332440D01*
X129137Y332487D01*
X129174Y332561D01*
X129220Y332644D01*
X129276Y332746D01*
X129341Y332857D01*
X129424Y332968D01*
X129516Y333069D01*
X129525Y333079D01*
X129562Y333116D01*
X129618Y333162D01*
X129692Y333227D01*
X129775Y333291D01*
X129886Y333366D01*
X129997Y333430D01*
X130127Y333495D01*
X130145Y333504D01*
X130192Y333523D01*
X130265Y333541D01*
X130358Y333578D01*
X130478Y333606D01*
X130608Y333624D01*
X130756Y333643D01*
X130904Y333652D01*
X130978D01*
X131061Y333643D01*
D02*
G37*
G36*
X167247Y328422D02*
X167340Y328413D01*
X167450Y328404D01*
X167580Y328385D01*
X167700Y328348D01*
X167821Y328311D01*
X167839Y328302D01*
X167876Y328293D01*
X167931Y328265D01*
X168006Y328228D01*
X168098Y328182D01*
X168181Y328126D01*
X168274Y328062D01*
X168357Y327988D01*
X168366Y327978D01*
X168394Y327951D01*
X168431Y327904D01*
X168477Y327849D01*
X168533Y327775D01*
X168588Y327692D01*
X168634Y327599D01*
X168681Y327488D01*
X168690Y327479D01*
X168699Y327442D01*
X168718Y327377D01*
X168736Y327303D01*
X168755Y327210D01*
X168773Y327099D01*
X168792Y326979D01*
Y326850D01*
Y326840D01*
Y326803D01*
Y326757D01*
X168782Y326693D01*
X168773Y326609D01*
X168755Y326526D01*
X168709Y326341D01*
Y326332D01*
X168690Y326304D01*
X168672Y326249D01*
X168644Y326193D01*
X168616Y326119D01*
X168570Y326036D01*
X168468Y325860D01*
X168459Y325851D01*
X168440Y325823D01*
X168403Y325777D01*
X168366Y325712D01*
X168311Y325638D01*
X168246Y325564D01*
X168098Y325379D01*
X168089Y325370D01*
X168061Y325342D01*
X168015Y325287D01*
X167959Y325222D01*
X167885Y325148D01*
X167811Y325064D01*
X167626Y324870D01*
X166609Y323797D01*
X168977D01*
Y322974D01*
X165295D01*
Y323668D01*
X167043Y325546D01*
X167053Y325555D01*
X167080Y325583D01*
X167118Y325629D01*
X167164Y325675D01*
X167275Y325804D01*
X167386Y325943D01*
X167395Y325953D01*
X167413Y325971D01*
X167432Y326008D01*
X167469Y326054D01*
X167534Y326165D01*
X167608Y326276D01*
Y326286D01*
X167626Y326304D01*
X167636Y326332D01*
X167663Y326369D01*
X167700Y326452D01*
X167737Y326554D01*
Y326563D01*
X167746Y326572D01*
X167756Y326637D01*
X167765Y326720D01*
X167774Y326813D01*
Y326822D01*
Y326840D01*
Y326877D01*
X167765Y326915D01*
X167756Y327016D01*
X167719Y327127D01*
Y327136D01*
X167710Y327155D01*
X167682Y327210D01*
X167645Y327294D01*
X167580Y327368D01*
Y327377D01*
X167561Y327386D01*
X167515Y327423D01*
X167441Y327469D01*
X167349Y327516D01*
X167340D01*
X167330Y327525D01*
X167303Y327534D01*
X167265Y327543D01*
X167173Y327562D01*
X167062Y327571D01*
X166988D01*
X166914Y327562D01*
X166822Y327543D01*
X166720Y327516D01*
X166618Y327469D01*
X166516Y327414D01*
X166424Y327331D01*
X166414Y327322D01*
X166396Y327285D01*
X166359Y327238D01*
X166322Y327164D01*
X166285Y327072D01*
X166248Y326961D01*
X166229Y326822D01*
X166220Y326674D01*
X165193D01*
Y326693D01*
Y326739D01*
X165203Y326803D01*
X165212Y326896D01*
X165221Y326998D01*
X165249Y327109D01*
X165277Y327229D01*
X165323Y327349D01*
X165332Y327368D01*
X165351Y327405D01*
X165378Y327460D01*
X165425Y327543D01*
X165480Y327627D01*
X165545Y327729D01*
X165619Y327821D01*
X165711Y327913D01*
X165721Y327923D01*
X165758Y327951D01*
X165813Y327997D01*
X165878Y328052D01*
X165971Y328108D01*
X166072Y328172D01*
X166183Y328237D01*
X166313Y328293D01*
X166331Y328302D01*
X166377Y328311D01*
X166452Y328339D01*
X166544Y328367D01*
X166655Y328385D01*
X166794Y328413D01*
X166942Y328422D01*
X167099Y328432D01*
X167164D01*
X167247Y328422D01*
D02*
G37*
G36*
X158163D02*
X158256Y328413D01*
X158367Y328404D01*
X158496Y328385D01*
X158617Y328348D01*
X158737Y328311D01*
X158756Y328302D01*
X158792Y328293D01*
X158848Y328265D01*
X158922Y328228D01*
X159014Y328182D01*
X159098Y328126D01*
X159190Y328062D01*
X159274Y327988D01*
X159283Y327978D01*
X159310Y327951D01*
X159347Y327904D01*
X159394Y327849D01*
X159449Y327775D01*
X159505Y327692D01*
X159551Y327599D01*
X159597Y327488D01*
X159607Y327479D01*
X159616Y327442D01*
X159634Y327377D01*
X159653Y327303D01*
X159671Y327210D01*
X159690Y327099D01*
X159708Y326979D01*
Y326850D01*
Y326840D01*
Y326803D01*
Y326757D01*
X159699Y326693D01*
X159690Y326609D01*
X159671Y326526D01*
X159625Y326341D01*
Y326332D01*
X159607Y326304D01*
X159588Y326249D01*
X159560Y326193D01*
X159532Y326119D01*
X159486Y326036D01*
X159385Y325860D01*
X159375Y325851D01*
X159357Y325823D01*
X159320Y325777D01*
X159283Y325712D01*
X159227Y325638D01*
X159162Y325564D01*
X159014Y325379D01*
X159005Y325370D01*
X158977Y325342D01*
X158931Y325287D01*
X158876Y325222D01*
X158802Y325148D01*
X158728Y325064D01*
X158543Y324870D01*
X157525Y323797D01*
X159893D01*
Y322974D01*
X156212D01*
Y323668D01*
X157960Y325546D01*
X157969Y325555D01*
X157997Y325583D01*
X158034Y325629D01*
X158080Y325675D01*
X158191Y325804D01*
X158302Y325943D01*
X158311Y325953D01*
X158330Y325971D01*
X158349Y326008D01*
X158386Y326054D01*
X158450Y326165D01*
X158524Y326276D01*
Y326286D01*
X158543Y326304D01*
X158552Y326332D01*
X158580Y326369D01*
X158617Y326452D01*
X158654Y326554D01*
Y326563D01*
X158663Y326572D01*
X158672Y326637D01*
X158681Y326720D01*
X158691Y326813D01*
Y326822D01*
Y326840D01*
Y326877D01*
X158681Y326915D01*
X158672Y327016D01*
X158635Y327127D01*
Y327136D01*
X158626Y327155D01*
X158598Y327210D01*
X158561Y327294D01*
X158496Y327368D01*
Y327377D01*
X158478Y327386D01*
X158432Y327423D01*
X158358Y327469D01*
X158265Y327516D01*
X158256D01*
X158247Y327525D01*
X158219Y327534D01*
X158182Y327543D01*
X158089Y327562D01*
X157978Y327571D01*
X157905D01*
X157831Y327562D01*
X157738Y327543D01*
X157636Y327516D01*
X157535Y327469D01*
X157433Y327414D01*
X157340Y327331D01*
X157331Y327322D01*
X157313Y327285D01*
X157275Y327238D01*
X157238Y327164D01*
X157202Y327072D01*
X157165Y326961D01*
X157146Y326822D01*
X157137Y326674D01*
X156110D01*
Y326693D01*
Y326739D01*
X156119Y326803D01*
X156129Y326896D01*
X156138Y326998D01*
X156166Y327109D01*
X156193Y327229D01*
X156239Y327349D01*
X156249Y327368D01*
X156267Y327405D01*
X156295Y327460D01*
X156341Y327543D01*
X156397Y327627D01*
X156462Y327729D01*
X156535Y327821D01*
X156628Y327913D01*
X156637Y327923D01*
X156674Y327951D01*
X156730Y327997D01*
X156795Y328052D01*
X156887Y328108D01*
X156989Y328172D01*
X157100Y328237D01*
X157229Y328293D01*
X157248Y328302D01*
X157294Y328311D01*
X157368Y328339D01*
X157460Y328367D01*
X157571Y328385D01*
X157710Y328413D01*
X157858Y328422D01*
X158016Y328432D01*
X158080D01*
X158163Y328422D01*
D02*
G37*
G36*
X171890D02*
X171983Y328413D01*
X172103Y328395D01*
X172223Y328376D01*
X172353Y328339D01*
X172473Y328293D01*
X172492Y328284D01*
X172529Y328265D01*
X172584Y328237D01*
X172668Y328191D01*
X172751Y328135D01*
X172843Y328071D01*
X172936Y327988D01*
X173028Y327895D01*
X173038Y327886D01*
X173065Y327849D01*
X173111Y327793D01*
X173158Y327710D01*
X173213Y327618D01*
X173278Y327497D01*
X173334Y327368D01*
X173380Y327229D01*
X173389Y327210D01*
X173398Y327155D01*
X173417Y327072D01*
X173444Y326961D01*
X173463Y326831D01*
X173482Y326674D01*
X173491Y326498D01*
X173500Y326304D01*
Y325018D01*
Y325009D01*
Y325000D01*
Y324972D01*
Y324935D01*
X173491Y324833D01*
X173482Y324713D01*
X173472Y324565D01*
X173454Y324417D01*
X173417Y324260D01*
X173380Y324102D01*
X173371Y324084D01*
X173361Y324038D01*
X173334Y323964D01*
X173287Y323871D01*
X173241Y323769D01*
X173186Y323658D01*
X173111Y323538D01*
X173028Y323436D01*
X173019Y323427D01*
X172991Y323390D01*
X172945Y323344D01*
X172880Y323288D01*
X172797Y323224D01*
X172705Y323150D01*
X172603Y323085D01*
X172483Y323029D01*
X172464Y323020D01*
X172427Y323011D01*
X172362Y322992D01*
X172270Y322965D01*
X172159Y322937D01*
X172038Y322919D01*
X171900Y322909D01*
X171752Y322900D01*
X171687D01*
X171604Y322909D01*
X171511Y322919D01*
X171391Y322928D01*
X171271Y322955D01*
X171141Y322983D01*
X171021Y323029D01*
X171002Y323039D01*
X170966Y323057D01*
X170910Y323085D01*
X170827Y323131D01*
X170744Y323187D01*
X170651Y323261D01*
X170559Y323344D01*
X170466Y323436D01*
X170457Y323446D01*
X170429Y323483D01*
X170392Y323538D01*
X170336Y323622D01*
X170281Y323714D01*
X170226Y323834D01*
X170170Y323964D01*
X170115Y324102D01*
Y324112D01*
X170105Y324121D01*
X170096Y324177D01*
X170078Y324260D01*
X170059Y324371D01*
X170031Y324500D01*
X170013Y324658D01*
X170003Y324833D01*
X169994Y325018D01*
Y326304D01*
Y326313D01*
Y326332D01*
Y326360D01*
Y326396D01*
X170003Y326489D01*
X170013Y326619D01*
X170022Y326757D01*
X170050Y326915D01*
X170078Y327072D01*
X170115Y327229D01*
Y327238D01*
X170124Y327248D01*
X170133Y327294D01*
X170161Y327368D01*
X170207Y327460D01*
X170253Y327571D01*
X170309Y327682D01*
X170383Y327793D01*
X170457Y327895D01*
X170466Y327904D01*
X170494Y327941D01*
X170549Y327988D01*
X170614Y328043D01*
X170697Y328108D01*
X170790Y328172D01*
X170891Y328237D01*
X171012Y328293D01*
X171030Y328302D01*
X171067Y328311D01*
X171132Y328339D01*
X171224Y328367D01*
X171335Y328385D01*
X171456Y328413D01*
X171595Y328422D01*
X171742Y328432D01*
X171807D01*
X171890Y328422D01*
D02*
G37*
G36*
X162807D02*
X162899Y328413D01*
X163020Y328395D01*
X163140Y328376D01*
X163269Y328339D01*
X163390Y328293D01*
X163408Y328284D01*
X163445Y328265D01*
X163501Y328237D01*
X163584Y328191D01*
X163667Y328135D01*
X163760Y328071D01*
X163852Y327988D01*
X163945Y327895D01*
X163954Y327886D01*
X163982Y327849D01*
X164028Y327793D01*
X164074Y327710D01*
X164130Y327618D01*
X164195Y327497D01*
X164250Y327368D01*
X164296Y327229D01*
X164305Y327210D01*
X164315Y327155D01*
X164333Y327072D01*
X164361Y326961D01*
X164380Y326831D01*
X164398Y326674D01*
X164407Y326498D01*
X164417Y326304D01*
Y325018D01*
Y325009D01*
Y325000D01*
Y324972D01*
Y324935D01*
X164407Y324833D01*
X164398Y324713D01*
X164389Y324565D01*
X164370Y324417D01*
X164333Y324260D01*
X164296Y324102D01*
X164287Y324084D01*
X164278Y324038D01*
X164250Y323964D01*
X164204Y323871D01*
X164157Y323769D01*
X164102Y323658D01*
X164028Y323538D01*
X163945Y323436D01*
X163935Y323427D01*
X163908Y323390D01*
X163862Y323344D01*
X163797Y323288D01*
X163714Y323224D01*
X163621Y323150D01*
X163519Y323085D01*
X163399Y323029D01*
X163381Y323020D01*
X163344Y323011D01*
X163279Y322992D01*
X163186Y322965D01*
X163075Y322937D01*
X162955Y322919D01*
X162816Y322909D01*
X162668Y322900D01*
X162603D01*
X162520Y322909D01*
X162428Y322919D01*
X162308Y322928D01*
X162187Y322955D01*
X162058Y322983D01*
X161937Y323029D01*
X161919Y323039D01*
X161882Y323057D01*
X161827Y323085D01*
X161743Y323131D01*
X161660Y323187D01*
X161567Y323261D01*
X161475Y323344D01*
X161382Y323436D01*
X161373Y323446D01*
X161346Y323483D01*
X161309Y323538D01*
X161253Y323622D01*
X161197Y323714D01*
X161142Y323834D01*
X161086Y323964D01*
X161031Y324102D01*
Y324112D01*
X161022Y324121D01*
X161012Y324177D01*
X160994Y324260D01*
X160976Y324371D01*
X160948Y324500D01*
X160929Y324658D01*
X160920Y324833D01*
X160911Y325018D01*
Y326304D01*
Y326313D01*
Y326332D01*
Y326360D01*
Y326396D01*
X160920Y326489D01*
X160929Y326619D01*
X160939Y326757D01*
X160966Y326915D01*
X160994Y327072D01*
X161031Y327229D01*
Y327238D01*
X161040Y327248D01*
X161049Y327294D01*
X161077Y327368D01*
X161124Y327460D01*
X161170Y327571D01*
X161225Y327682D01*
X161299Y327793D01*
X161373Y327895D01*
X161382Y327904D01*
X161410Y327941D01*
X161466Y327988D01*
X161530Y328043D01*
X161614Y328108D01*
X161706Y328172D01*
X161808Y328237D01*
X161928Y328293D01*
X161947Y328302D01*
X161984Y328311D01*
X162048Y328339D01*
X162141Y328367D01*
X162252Y328385D01*
X162372Y328413D01*
X162511Y328422D01*
X162659Y328432D01*
X162724D01*
X162807Y328422D01*
D02*
G37*
%LPC*%
G36*
X167774Y331404D02*
X167164D01*
X167108Y331395D01*
X166970Y331386D01*
X166831Y331358D01*
X166822D01*
X166803Y331349D01*
X166775Y331340D01*
X166738Y331321D01*
X166646Y331284D01*
X166553Y331229D01*
X166535Y331210D01*
X166498Y331173D01*
X166442Y331108D01*
X166396Y331025D01*
Y331016D01*
X166387Y331007D01*
X166377Y330951D01*
X166359Y330877D01*
X166350Y330775D01*
Y330766D01*
Y330738D01*
X166359Y330701D01*
X166368Y330655D01*
X166387Y330600D01*
X166405Y330544D01*
X166442Y330489D01*
X166489Y330433D01*
X166498Y330424D01*
X166516Y330415D01*
X166553Y330387D01*
X166600Y330368D01*
X166664Y330341D01*
X166738Y330313D01*
X166831Y330304D01*
X166932Y330294D01*
X166988D01*
X167025Y330304D01*
X167118Y330313D01*
X167219Y330331D01*
X167228D01*
X167247Y330341D01*
X167303Y330359D01*
X167376Y330387D01*
X167460Y330424D01*
X167469D01*
X167478Y330433D01*
X167525Y330470D01*
X167589Y330507D01*
X167645Y330563D01*
X167663Y330581D01*
X167691Y330618D01*
X167737Y330664D01*
X167774Y330720D01*
Y331404D01*
D02*
G37*
G36*
X153122Y334124D02*
X152780D01*
Y330415D01*
X153224D01*
X153279Y330424D01*
X153354Y330433D01*
X153428Y330443D01*
X153520Y330461D01*
X153603Y330489D01*
X153696Y330526D01*
X153705Y330535D01*
X153733Y330544D01*
X153779Y330572D01*
X153834Y330609D01*
X153890Y330655D01*
X153955Y330701D01*
X154084Y330840D01*
X154094Y330850D01*
X154112Y330877D01*
X154140Y330924D01*
X154177Y330988D01*
X154223Y331062D01*
X154260Y331146D01*
X154297Y331247D01*
X154334Y331358D01*
Y331377D01*
X154352Y331414D01*
X154362Y331479D01*
X154380Y331562D01*
X154399Y331663D01*
X154408Y331774D01*
X154427Y331904D01*
Y332043D01*
Y332496D01*
Y332515D01*
Y332561D01*
Y332626D01*
X154417Y332718D01*
X154408Y332820D01*
X154390Y332922D01*
X154343Y333153D01*
Y333162D01*
X154325Y333208D01*
X154306Y333264D01*
X154279Y333329D01*
X154242Y333412D01*
X154204Y333504D01*
X154094Y333671D01*
X154084Y333680D01*
X154066Y333708D01*
X154029Y333745D01*
X153982Y333791D01*
X153918Y333846D01*
X153853Y333902D01*
X153686Y334004D01*
X153677Y334013D01*
X153640Y334022D01*
X153594Y334041D01*
X153529Y334068D01*
X153446Y334087D01*
X153344Y334105D01*
X153243Y334115D01*
X153122Y334124D01*
D02*
G37*
G36*
X140524Y331404D02*
X139913Y331404D01*
X139858Y331395D01*
X139719Y331386D01*
X139580Y331358D01*
X139571D01*
X139552Y331349D01*
X139525Y331340D01*
X139488Y331321D01*
X139395Y331284D01*
X139303Y331229D01*
X139284Y331210D01*
X139247Y331173D01*
X139192Y331108D01*
X139146Y331025D01*
Y331016D01*
X139136Y331007D01*
X139127Y330951D01*
X139109Y330877D01*
X139099Y330775D01*
Y330766D01*
Y330738D01*
X139109Y330701D01*
X139118Y330655D01*
X139136Y330600D01*
X139155Y330544D01*
X139192Y330489D01*
X139238Y330433D01*
X139247Y330424D01*
X139266Y330415D01*
X139303Y330387D01*
X139349Y330368D01*
X139414Y330341D01*
X139488Y330313D01*
X139580Y330304D01*
X139682Y330294D01*
X139737D01*
X139775Y330304D01*
X139867Y330313D01*
X139969Y330331D01*
X139978D01*
X139997Y330341D01*
X140052Y330359D01*
X140126Y330387D01*
X140209Y330424D01*
X140218D01*
X140228Y330433D01*
X140274Y330470D01*
X140339Y330507D01*
X140394Y330563D01*
X140413Y330581D01*
X140440Y330618D01*
X140487Y330664D01*
X140524Y330720D01*
Y331404D01*
D02*
G37*
G36*
X158154Y332820D02*
X158089D01*
X158053Y332810D01*
X157941Y332792D01*
X157831Y332755D01*
X157821D01*
X157812Y332746D01*
X157747Y332709D01*
X157664Y332653D01*
X157581Y332579D01*
Y332570D01*
X157562Y332561D01*
X157516Y332505D01*
X157460Y332422D01*
X157396Y332311D01*
Y332302D01*
X157387Y332283D01*
X157368Y332256D01*
X157359Y332209D01*
X157322Y332098D01*
X157285Y331960D01*
X158968D01*
Y332033D01*
Y332043D01*
Y332061D01*
Y332098D01*
X158959Y332135D01*
X158950Y332237D01*
X158913Y332339D01*
Y332348D01*
X158904Y332366D01*
X158894Y332394D01*
X158876Y332422D01*
X158820Y332505D01*
X158746Y332589D01*
Y332598D01*
X158728Y332607D01*
X158681Y332653D01*
X158598Y332709D01*
X158496Y332755D01*
X158487D01*
X158469Y332764D01*
X158441Y332773D01*
X158395Y332792D01*
X158293Y332810D01*
X158154Y332820D01*
D02*
G37*
G36*
X130904Y332820D02*
X130839D01*
X130802Y332810D01*
X130691Y332792D01*
X130580Y332755D01*
X130571D01*
X130561Y332746D01*
X130497Y332709D01*
X130413Y332653D01*
X130330Y332579D01*
Y332570D01*
X130312Y332561D01*
X130265Y332505D01*
X130210Y332422D01*
X130145Y332311D01*
Y332302D01*
X130136Y332283D01*
X130117Y332256D01*
X130108Y332209D01*
X130071Y332098D01*
X130034Y331960D01*
X131718D01*
Y332033D01*
Y332043D01*
Y332061D01*
Y332098D01*
X131709Y332135D01*
X131699Y332237D01*
X131662Y332339D01*
Y332348D01*
X131653Y332366D01*
X131644Y332394D01*
X131625Y332422D01*
X131570Y332505D01*
X131496Y332589D01*
Y332598D01*
X131477Y332607D01*
X131431Y332653D01*
X131348Y332709D01*
X131246Y332755D01*
X131237D01*
X131218Y332764D01*
X131191Y332773D01*
X131144Y332792D01*
X131043Y332810D01*
X130904Y332820D01*
D02*
G37*
G36*
X171742Y327599D02*
X171687D01*
X171622Y327580D01*
X171539Y327562D01*
X171456Y327534D01*
X171363Y327479D01*
X171280Y327414D01*
X171206Y327322D01*
X171197Y327312D01*
X171178Y327266D01*
X171151Y327201D01*
X171123Y327109D01*
X171086Y326989D01*
X171058Y326850D01*
X171039Y326674D01*
X171030Y326470D01*
Y325462D01*
X172464Y326535D01*
Y326544D01*
Y326563D01*
Y326591D01*
Y326628D01*
X172455Y326720D01*
X172436Y326840D01*
X172408Y326970D01*
X172381Y327099D01*
X172335Y327220D01*
X172270Y327331D01*
X172260Y327340D01*
X172233Y327377D01*
X172196Y327414D01*
X172140Y327469D01*
X172066Y327516D01*
X171974Y327562D01*
X171863Y327590D01*
X171742Y327599D01*
D02*
G37*
G36*
X172464Y325832D02*
X171030Y324768D01*
Y324759D01*
Y324741D01*
Y324713D01*
X171039Y324685D01*
X171049Y324584D01*
X171058Y324472D01*
X171086Y324343D01*
X171123Y324204D01*
X171169Y324084D01*
X171224Y323973D01*
X171234Y323964D01*
X171262Y323936D01*
X171299Y323890D01*
X171354Y323853D01*
X171428Y323807D01*
X171520Y323760D01*
X171632Y323732D01*
X171752Y323723D01*
X171770D01*
X171807Y323732D01*
X171872Y323742D01*
X171955Y323760D01*
X172038Y323788D01*
X172131Y323844D01*
X172214Y323908D01*
X172288Y324001D01*
X172298Y324010D01*
X172316Y324056D01*
X172344Y324121D01*
X172381Y324214D01*
X172408Y324334D01*
X172436Y324482D01*
X172455Y324658D01*
X172464Y324861D01*
Y325832D01*
D02*
G37*
G36*
X162659Y327599D02*
X162603D01*
X162539Y327580D01*
X162455Y327562D01*
X162372Y327534D01*
X162280Y327479D01*
X162197Y327414D01*
X162122Y327322D01*
X162113Y327312D01*
X162095Y327266D01*
X162067Y327201D01*
X162039Y327109D01*
X162002Y326989D01*
X161975Y326850D01*
X161956Y326674D01*
X161947Y326470D01*
Y325462D01*
X163381Y326535D01*
Y326544D01*
Y326563D01*
Y326591D01*
Y326628D01*
X163371Y326720D01*
X163353Y326840D01*
X163325Y326970D01*
X163297Y327099D01*
X163251Y327220D01*
X163186Y327331D01*
X163177Y327340D01*
X163149Y327377D01*
X163112Y327414D01*
X163057Y327469D01*
X162983Y327516D01*
X162890Y327562D01*
X162779Y327590D01*
X162659Y327599D01*
D02*
G37*
G36*
X163381Y325832D02*
X161947Y324768D01*
Y324759D01*
Y324741D01*
Y324713D01*
X161956Y324685D01*
X161965Y324584D01*
X161975Y324472D01*
X162002Y324343D01*
X162039Y324204D01*
X162085Y324084D01*
X162141Y323973D01*
X162150Y323964D01*
X162178Y323936D01*
X162215Y323890D01*
X162270Y323853D01*
X162345Y323807D01*
X162437Y323760D01*
X162548Y323732D01*
X162668Y323723D01*
X162687D01*
X162724Y323732D01*
X162788Y323742D01*
X162872Y323760D01*
X162955Y323788D01*
X163048Y323844D01*
X163131Y323908D01*
X163205Y324001D01*
X163214Y324010D01*
X163233Y324056D01*
X163260Y324121D01*
X163297Y324214D01*
X163325Y324334D01*
X163353Y324482D01*
X163371Y324658D01*
X163381Y324861D01*
Y325832D01*
D02*
G37*
%LPD*%
D10*
X99202Y45586D02*
D03*
X119092Y54714D02*
D03*
D11*
X44500Y181000D02*
X43750Y181433D01*
Y180567D01*
X44500Y181000D01*
X87114Y385492D02*
Y389492D01*
X176000Y115000D02*
Y125000D01*
X156000Y115000D02*
X176000D01*
X156000Y125000D02*
X176000D01*
X156000Y115000D02*
Y125000D01*
X166000D01*
X160039Y139008D02*
Y143008D01*
X28114Y150992D02*
Y154992D01*
Y156992D02*
Y160992D01*
Y162992D02*
Y166992D01*
Y168992D02*
Y172992D01*
Y174992D02*
Y178992D01*
Y180992D02*
Y184992D01*
Y186992D02*
Y190992D01*
Y192992D02*
Y196992D01*
X2500Y146000D02*
X22500D01*
X2500Y56000D02*
Y146000D01*
Y56000D02*
X22500D01*
Y146000D01*
X145000Y186500D02*
X155000D01*
Y196500D01*
X135000Y186500D02*
X155000D01*
X135000Y196500D02*
X155000D01*
X135000Y186500D02*
Y196500D01*
X166500Y186500D02*
X176500D01*
Y196500D01*
X156500Y186500D02*
X176500D01*
X156500Y196500D02*
X176500D01*
X156500Y186500D02*
Y196500D01*
X156000Y137000D02*
X166000D01*
X156000Y127000D02*
Y137000D01*
X176000D01*
X156000Y127000D02*
X176000D01*
Y137000D01*
X102000Y380000D02*
Y390000D01*
X92000D02*
X102000D01*
Y370000D02*
Y390000D01*
X92000Y370000D02*
Y390000D01*
Y370000D02*
X102000D01*
X172614Y101992D02*
Y105992D01*
X124103Y69199D02*
Y65200D01*
X126103Y63201D01*
X128102Y65200D01*
Y69199D01*
X130102D02*
X132101D01*
X131101D01*
Y63201D01*
X130102D01*
X132101D01*
X135100D02*
Y69199D01*
X139099Y63201D01*
Y69199D01*
X141098Y66200D02*
X145097D01*
X143097Y68199D02*
Y64201D01*
X121403Y28299D02*
Y24300D01*
X123403Y22301D01*
X125402Y24300D01*
Y28299D01*
X127401D02*
X129401D01*
X128401D01*
Y22301D01*
X127401D01*
X129401D01*
X132400D02*
Y28299D01*
X136399Y22301D01*
Y28299D01*
X138398Y25300D02*
X142397D01*
D12*
X76480Y361874D02*
X75742Y362300D01*
Y361448D01*
X76480Y361874D01*
X95362Y324346D02*
X94624Y324773D01*
Y323920D01*
X95362Y324346D01*
X72512Y340047D02*
X71774Y340473D01*
Y339621D01*
X72512Y340047D01*
X150622Y183221D02*
X149884Y183647D01*
Y182794D01*
X150622Y183221D01*
X149520Y89913D02*
X148782Y90340D01*
Y89487D01*
X149520Y89913D01*
X116386Y382035D02*
X115648Y382462D01*
Y381609D01*
X116386Y382035D01*
D13*
X104516Y319209D02*
X104071Y320132D01*
X103072Y320360D01*
X102270Y319721D01*
Y318696D01*
X103072Y318057D01*
X104071Y318285D01*
X104516Y319209D01*
X68083Y330402D02*
X67638Y331325D01*
X66639Y331553D01*
X65838Y330914D01*
Y329889D01*
X66639Y329250D01*
X67638Y329478D01*
X68083Y330402D01*
D14*
X79516Y384744D02*
X81484D01*
X79516Y390256D02*
X81484D01*
X165669Y143756D02*
X167638D01*
X165669Y138244D02*
X167638D01*
X20516Y150244D02*
X22484D01*
X20516Y155756D02*
X22484D01*
X20516Y156244D02*
X22484D01*
X20516Y161756D02*
X22484D01*
X20516Y162244D02*
X22484D01*
X20516Y167756D02*
X22484D01*
X20516Y168244D02*
X22484D01*
X20516Y173756D02*
X22484D01*
X20516Y174244D02*
X22484D01*
X20516Y179756D02*
X22484D01*
X20516Y180244D02*
X22484D01*
X20516Y185756D02*
X22484D01*
X20516Y186244D02*
X22484D01*
X20516Y191756D02*
X22484D01*
X20516Y192244D02*
X22484D01*
X20516Y197756D02*
X22484D01*
X13244Y42516D02*
Y44484D01*
X18756Y42516D02*
Y44484D01*
X7244Y42516D02*
Y44484D01*
X12756Y42516D02*
Y44484D01*
X165016Y113756D02*
X166984D01*
X165016Y108244D02*
X166984D01*
X79516Y383756D02*
X81484D01*
X79516Y378244D02*
X81484D01*
X105256Y294016D02*
Y295984D01*
X99744Y294016D02*
Y295984D01*
X118256Y294016D02*
Y295984D01*
X112744Y294016D02*
Y295984D01*
X111756Y294016D02*
Y295984D01*
X106244Y294016D02*
Y295984D01*
X98756Y294016D02*
Y295984D01*
X93244Y294016D02*
Y295984D01*
X33344Y354716D02*
Y356684D01*
X38856Y354716D02*
Y356684D01*
X32356Y354716D02*
Y356684D01*
X26844Y354716D02*
Y356684D01*
X7516Y150244D02*
X9484D01*
X7516Y155756D02*
X9484D01*
X7516Y156244D02*
X9484D01*
X7516Y161756D02*
X9484D01*
X7516Y162244D02*
X9484D01*
X7516Y167756D02*
X9484D01*
X7516Y168244D02*
X9484D01*
X7516Y173756D02*
X9484D01*
X7516Y174244D02*
X9484D01*
X7516Y179756D02*
X9484D01*
X7516Y180244D02*
X9484D01*
X7516Y185756D02*
X9484D01*
X7516Y186244D02*
X9484D01*
X7516Y191756D02*
X9484D01*
X7516Y192244D02*
X9484D01*
X7516Y197756D02*
X9484D01*
X165016Y106756D02*
X166984D01*
X165016Y101244D02*
X166984D01*
X143555Y110556D02*
X145524D01*
X143555Y105044D02*
X145524D01*
X143476Y83344D02*
X145445D01*
X143476Y88856D02*
X145445D01*
X79555Y377256D02*
X81524D01*
X79555Y371744D02*
X81524D01*
D15*
X144768Y42232D02*
X177248D01*
X178232D01*
Y8768D02*
Y42232D01*
X144768Y8768D02*
X178232D01*
X144768D02*
Y42232D01*
Y78232D02*
X177248D01*
X178232D01*
Y44768D02*
Y78232D01*
X144768Y44768D02*
X178232D01*
X144768D02*
Y78232D01*
X38752Y380095D02*
Y393480D01*
X70051D02*
X70248Y393284D01*
X38752Y393480D02*
X70051D01*
X70248Y380095D02*
Y393284D01*
X99398Y303854D02*
X111602D01*
X99398Y323146D02*
X111602D01*
Y303854D02*
Y323146D01*
X99398Y303854D02*
Y323146D01*
X38161Y301661D02*
Y334339D01*
X70839Y301661D02*
Y334339D01*
X38161Y301661D02*
X70839D01*
X38161Y334339D02*
X70839D01*
X152689Y152315D02*
X176311D01*
X152689Y183811D02*
X176311D01*
Y152315D02*
Y183811D01*
X152689Y152315D02*
Y183811D01*
Y179874D02*
X156626Y183811D01*
X140957Y90898D02*
X144500D01*
X140957D02*
Y94244D01*
Y103102D02*
X144500D01*
X140957Y99756D02*
Y103102D01*
X129673Y347528D02*
Y388472D01*
Y347528D02*
X138138D01*
X129673Y388472D02*
X138138D01*
X95528Y199784D02*
Y235216D01*
Y199784D02*
X176472D01*
X95528Y235216D02*
X176472D01*
Y199784D02*
Y235216D01*
X2528Y243284D02*
Y278716D01*
Y243284D02*
X83472D01*
X2528Y278716D02*
X83472D01*
Y243284D02*
Y278716D01*
X2028Y200284D02*
Y235717D01*
Y200284D02*
X82972D01*
X2028Y235717D02*
X82972D01*
Y200284D02*
Y235717D01*
D16*
X129850Y180709D02*
Y184350D01*
X126209Y104650D02*
X129850D01*
X50150D02*
Y108291D01*
Y180709D02*
Y184350D01*
X126209D02*
X129850D01*
Y104650D02*
Y108291D01*
X50150Y104650D02*
X53791D01*
X50150Y184350D02*
X53791D01*
X108750Y68400D02*
Y70100D01*
Y30700D02*
Y32400D01*
X69350Y30700D02*
X71050D01*
X69350Y68400D02*
Y70100D01*
X107050D02*
X108750D01*
X105450Y32400D02*
X107050Y34000D01*
X69350Y70100D02*
X71050D01*
X69350Y30700D02*
Y32400D01*
X107050Y30700D02*
X108750D01*
X160961Y211316D02*
X161627Y210650D01*
X162960D01*
X163626Y211316D01*
Y213982D01*
X162960Y214648D01*
X161627D01*
X160961Y213982D01*
Y213315D01*
X161627Y212649D01*
X163626D01*
X160961Y220650D02*
X162294D01*
X161627D01*
Y224648D01*
X160961Y223982D01*
X164293D02*
X164959Y224648D01*
X166292D01*
X166959Y223982D01*
Y221316D01*
X166292Y220650D01*
X164959D01*
X164293Y221316D01*
Y223982D01*
X111343Y220413D02*
X108677D01*
X111343Y223079D01*
Y223746D01*
X110677Y224412D01*
X109344D01*
X108677Y223746D01*
X109858Y210413D02*
X111191D01*
X110525D01*
Y214412D01*
X109858Y213746D01*
X67961Y254816D02*
X68627Y254150D01*
X69960D01*
X70626Y254816D01*
Y257482D01*
X69960Y258148D01*
X68627D01*
X67961Y257482D01*
Y256815D01*
X68627Y256149D01*
X70626D01*
X67961Y264150D02*
X69293D01*
X68627D01*
Y268148D01*
X67961Y267482D01*
X71293D02*
X71959Y268148D01*
X73292D01*
X73959Y267482D01*
Y264816D01*
X73292Y264150D01*
X71959D01*
X71293Y264816D01*
Y267482D01*
X18343Y263913D02*
X15677D01*
X18343Y266579D01*
Y267246D01*
X17676Y267912D01*
X16344D01*
X15677Y267246D01*
X16858Y253913D02*
X18191D01*
X17525D01*
Y257912D01*
X16858Y257246D01*
X67461Y211816D02*
X68127Y211150D01*
X69460D01*
X70126Y211816D01*
Y214482D01*
X69460Y215148D01*
X68127D01*
X67461Y214482D01*
Y213815D01*
X68127Y213149D01*
X70126D01*
X67461Y221150D02*
X68793D01*
X68127D01*
Y225148D01*
X67461Y224482D01*
X70793D02*
X71459Y225148D01*
X72792D01*
X73459Y224482D01*
Y221816D01*
X72792Y221150D01*
X71459D01*
X70793Y221816D01*
Y224482D01*
X17843Y220913D02*
X15177D01*
X17843Y223579D01*
Y224246D01*
X17176Y224912D01*
X15844D01*
X15177Y224246D01*
X16358Y210913D02*
X17691D01*
X17025D01*
Y214912D01*
X16358Y214246D01*
D17*
X32834Y7033D02*
X32168Y7699D01*
X30835D01*
X30168Y7033D01*
Y6366D01*
X30835Y5700D01*
X32168D01*
X32834Y5034D01*
Y4367D01*
X32168Y3701D01*
X30835D01*
X30168Y4367D01*
X34167Y7699D02*
Y3701D01*
X35500Y5034D01*
X36833Y3701D01*
Y7699D01*
X40832Y3701D02*
X38166D01*
X40832Y6366D01*
Y7033D01*
X40165Y7699D01*
X38832D01*
X38166Y7033D01*
X10001Y6633D02*
X9334Y7299D01*
X8001D01*
X7335Y6633D01*
Y5966D01*
X8001Y5300D01*
X9334D01*
X10001Y4634D01*
Y3967D01*
X9334Y3301D01*
X8001D01*
X7335Y3967D01*
X11333Y7299D02*
Y3301D01*
X12666Y4634D01*
X13999Y3301D01*
Y7299D01*
X15332Y3301D02*
X16665D01*
X15999D01*
Y7299D01*
X15332Y6633D01*
X123141Y254833D02*
X120475D01*
Y252833D01*
X121808D01*
X120475D01*
Y250834D01*
X124474D02*
Y254833D01*
X126474D01*
X127140Y254166D01*
Y252833D01*
X126474Y252167D01*
X124474D01*
X131139Y254166D02*
X130472Y254833D01*
X129139D01*
X128473Y254166D01*
Y251500D01*
X129139Y250834D01*
X130472D01*
X131139Y251500D01*
Y252833D01*
X129806D01*
X132472Y250834D02*
Y253500D01*
X133805Y254833D01*
X135137Y253500D01*
Y250834D01*
Y252833D01*
X132472D01*
X136470Y250167D02*
X139136D01*
X140469Y250834D02*
Y254833D01*
X142468D01*
X143135Y254166D01*
Y252833D01*
X142468Y252167D01*
X140469D01*
X144468Y250834D02*
Y254833D01*
X146467D01*
X147134Y254166D01*
Y252833D01*
X146467Y252167D01*
X144468D01*
X145801D02*
X147134Y250834D01*
X150466Y254833D02*
X149133D01*
X148467Y254166D01*
Y251500D01*
X149133Y250834D01*
X150466D01*
X151132Y251500D01*
Y254166D01*
X150466Y254833D01*
X155131Y254166D02*
X154464Y254833D01*
X153132D01*
X152465Y254166D01*
Y251500D01*
X153132Y250834D01*
X154464D01*
X155131Y251500D01*
Y252833D01*
X153798D01*
X156464Y250834D02*
Y254833D01*
X158463D01*
X159130Y254166D01*
Y252833D01*
X158463Y252167D01*
X156464D01*
X157797D02*
X159130Y250834D01*
X160463D02*
Y253500D01*
X161795Y254833D01*
X163128Y253500D01*
Y250834D01*
Y252833D01*
X160463D01*
X164461Y250834D02*
Y254833D01*
X165794Y253500D01*
X167127Y254833D01*
Y250834D01*
X168460Y250167D02*
X171126D01*
X172459Y250834D02*
Y254833D01*
X175125Y250834D01*
Y254833D01*
X161668Y98333D02*
X162335Y98999D01*
X163668D01*
X164334Y98333D01*
Y97666D01*
X163668Y97000D01*
X163001D01*
X163668D01*
X164334Y96334D01*
Y95667D01*
X163668Y95001D01*
X162335D01*
X161668Y95667D01*
X165667Y98999D02*
Y96334D01*
X167000Y95001D01*
X168333Y96334D01*
Y98999D01*
X169666Y98333D02*
X170332Y98999D01*
X171665D01*
X172332Y98333D01*
Y97666D01*
X171665Y97000D01*
X170999D01*
X171665D01*
X172332Y96334D01*
Y95667D01*
X171665Y95001D01*
X170332D01*
X169666Y95667D01*
X159935Y145301D02*
X161268D01*
X160602D01*
Y149299D01*
X159935Y148633D01*
X163268Y145301D02*
Y145967D01*
X163934D01*
Y145301D01*
X163268D01*
X166600Y148633D02*
X167266Y149299D01*
X168599D01*
X169266Y148633D01*
Y147967D01*
X168599Y147300D01*
X169266Y146634D01*
Y145967D01*
X168599Y145301D01*
X167266D01*
X166600Y145967D01*
Y146634D01*
X167266Y147300D01*
X166600Y147967D01*
Y148633D01*
X167266Y147300D02*
X168599D01*
X170599Y149299D02*
Y146634D01*
X171932Y145301D01*
X173265Y146634D01*
Y149299D01*
X106734Y388199D02*
X104068D01*
Y386200D01*
X105401Y386866D01*
X106067D01*
X106734Y386200D01*
Y384867D01*
X106067Y384201D01*
X104734D01*
X104068Y384867D01*
X108066Y388199D02*
Y385534D01*
X109399Y384201D01*
X110732Y385534D01*
Y388199D01*
X29185Y154849D02*
Y151351D01*
X31518D01*
X35017Y154849D02*
X32684D01*
Y151351D01*
X35017D01*
X32684Y153100D02*
X33851D01*
X36183Y154849D02*
Y151351D01*
X37933D01*
X38516Y151934D01*
Y154266D01*
X37933Y154849D01*
X36183D01*
X39682D02*
X42015D01*
Y154266D01*
X39682Y151934D01*
Y151351D01*
X29285Y160749D02*
Y157251D01*
X31618D01*
X35117Y160749D02*
X32784D01*
Y157251D01*
X35117D01*
X32784Y159000D02*
X33951D01*
X36283Y160749D02*
Y157251D01*
X38033D01*
X38616Y157834D01*
Y160166D01*
X38033Y160749D01*
X36283D01*
X42115D02*
X40948Y160166D01*
X39782Y159000D01*
Y157834D01*
X40365Y157251D01*
X41532D01*
X42115Y157834D01*
Y158417D01*
X41532Y159000D01*
X39782D01*
X29485Y167249D02*
Y163751D01*
X31818D01*
X35317Y167249D02*
X32984D01*
Y163751D01*
X35317D01*
X32984Y165500D02*
X34151D01*
X36483Y167249D02*
Y163751D01*
X38233D01*
X38816Y164334D01*
Y166666D01*
X38233Y167249D01*
X36483D01*
X42315D02*
X39982D01*
Y165500D01*
X41148Y166083D01*
X41732D01*
X42315Y165500D01*
Y164334D01*
X41732Y163751D01*
X40565D01*
X39982Y164334D01*
X29585Y173049D02*
Y169551D01*
X31918D01*
X35417Y173049D02*
X33084D01*
Y169551D01*
X35417D01*
X33084Y171300D02*
X34251D01*
X36583Y173049D02*
Y169551D01*
X38333D01*
X38916Y170134D01*
Y172466D01*
X38333Y173049D01*
X36583D01*
X41831Y169551D02*
Y173049D01*
X40082Y171300D01*
X42415D01*
X29585Y178749D02*
Y175251D01*
X31918D01*
X35417Y178749D02*
X33084D01*
Y175251D01*
X35417D01*
X33084Y177000D02*
X34251D01*
X36583Y178749D02*
Y175251D01*
X38333D01*
X38916Y175834D01*
Y178166D01*
X38333Y178749D01*
X36583D01*
X40082Y178166D02*
X40665Y178749D01*
X41831D01*
X42415Y178166D01*
Y177583D01*
X41831Y177000D01*
X41248D01*
X41831D01*
X42415Y176417D01*
Y175834D01*
X41831Y175251D01*
X40665D01*
X40082Y175834D01*
X29485Y184849D02*
Y181351D01*
X31818D01*
X35317Y184849D02*
X32984D01*
Y181351D01*
X35317D01*
X32984Y183100D02*
X34151D01*
X36483Y184849D02*
Y181351D01*
X38233D01*
X38816Y181934D01*
Y184266D01*
X38233Y184849D01*
X36483D01*
X42315Y181351D02*
X39982D01*
X42315Y183683D01*
Y184266D01*
X41732Y184849D01*
X40565D01*
X39982Y184266D01*
X29568Y190649D02*
Y187151D01*
X31901D01*
X35400Y190649D02*
X33067D01*
Y187151D01*
X35400D01*
X33067Y188900D02*
X34234D01*
X36566Y190649D02*
Y187151D01*
X38316D01*
X38899Y187734D01*
Y190066D01*
X38316Y190649D01*
X36566D01*
X40065Y187151D02*
X41232D01*
X40648D01*
Y190649D01*
X40065Y190066D01*
X29485Y196749D02*
Y193251D01*
X31818D01*
X35317Y196749D02*
X32984D01*
Y193251D01*
X35317D01*
X32984Y195000D02*
X34151D01*
X36483Y196749D02*
Y193251D01*
X38233D01*
X38816Y193834D01*
Y196166D01*
X38233Y196749D01*
X36483D01*
X39982Y196166D02*
X40565Y196749D01*
X41732D01*
X42315Y196166D01*
Y193834D01*
X41732Y193251D01*
X40565D01*
X39982Y193834D01*
Y196166D01*
D18*
X136000Y201358D02*
D03*
X43000Y244858D02*
D03*
X42500Y201858D02*
D03*
M02*
